<svg width="25" height="25" viewBox="0 0 25 25" fill="none" xmlns="http://www.w3.org/2000/svg">
<path d="M17.4479 3.70825V2.08325C17.4479 1.65617 17.0937 1.302 16.6667 1.302C16.2396 1.302 15.8854 1.65617 15.8854 2.08325V3.64575H9.11458V2.08325C9.11458 1.65617 8.76042 1.302 8.33333 1.302C7.90625 1.302 7.55208 1.65617 7.55208 2.08325V3.70825C4.73958 3.96867 3.375 5.64575 3.16667 8.13533C3.14583 8.43742 3.39583 8.68742 3.6875 8.68742H21.3125C21.6146 8.68742 21.8646 8.427 21.8333 8.13533C21.625 5.64575 20.2604 3.96867 17.4479 3.70825ZM20.8333 10.2499H4.16667C3.59375 10.2499 3.125 10.7187 3.125 11.2916V17.7083C3.125 20.8333 4.6875 22.9166 8.33333 22.9166H16.6667C20.3125 22.9166 21.875 20.8333 21.875 17.7083V11.2916C21.875 10.7187 21.4062 10.2499 20.8333 10.2499ZM9.59375 18.9687C9.54167 19.0103 9.48958 19.0624 9.4375 19.0937C9.375 19.1353 9.3125 19.1666 9.25 19.1874C9.1875 19.2187 9.125 19.2395 9.0625 19.2499C8.98958 19.2603 8.92708 19.2708 8.85417 19.2708C8.71875 19.2708 8.58333 19.2395 8.45833 19.1874C8.32292 19.1353 8.21875 19.0624 8.11458 18.9687C7.92708 18.7708 7.8125 18.4999 7.8125 18.2291C7.8125 17.9583 7.92708 17.6874 8.11458 17.4895C8.21875 17.3958 8.32292 17.3228 8.45833 17.2708C8.64583 17.1874 8.85417 17.1666 9.0625 17.2083C9.125 17.2187 9.1875 17.2395 9.25 17.2708C9.3125 17.2916 9.375 17.3228 9.4375 17.3645L9.59375 17.4895C9.78125 17.6874 9.89583 17.9583 9.89583 18.2291C9.89583 18.4999 9.78125 18.7708 9.59375 18.9687ZM9.59375 15.3228C9.39583 15.5103 9.125 15.6249 8.85417 15.6249C8.58333 15.6249 8.3125 15.5103 8.11458 15.3228C7.92708 15.1249 7.8125 14.8541 7.8125 14.5833C7.8125 14.3124 7.92708 14.0416 8.11458 13.8437C8.40625 13.552 8.86458 13.4583 9.25 13.6249C9.38542 13.677 9.5 13.7499 9.59375 13.8437C9.78125 14.0416 9.89583 14.3124 9.89583 14.5833C9.89583 14.8541 9.78125 15.1249 9.59375 15.3228ZM13.2396 18.9687C13.0417 19.1562 12.7708 19.2708 12.5 19.2708C12.2292 19.2708 11.9583 19.1562 11.7604 18.9687C11.5729 18.7708 11.4583 18.4999 11.4583 18.2291C11.4583 17.9583 11.5729 17.6874 11.7604 17.4895C12.1458 17.1041 12.8542 17.1041 13.2396 17.4895C13.4271 17.6874 13.5417 17.9583 13.5417 18.2291C13.5417 18.4999 13.4271 18.7708 13.2396 18.9687ZM13.2396 15.3228L13.0833 15.4478C13.0208 15.4895 12.9583 15.5208 12.8958 15.5416C12.8333 15.5728 12.7708 15.5937 12.7083 15.6041C12.6354 15.6145 12.5729 15.6249 12.5 15.6249C12.2292 15.6249 11.9583 15.5103 11.7604 15.3228C11.5729 15.1249 11.4583 14.8541 11.4583 14.5833C11.4583 14.3124 11.5729 14.0416 11.7604 13.8437C11.8542 13.7499 11.9688 13.677 12.1042 13.6249C12.4896 13.4583 12.9479 13.552 13.2396 13.8437C13.4271 14.0416 13.5417 14.3124 13.5417 14.5833C13.5417 14.8541 13.4271 15.1249 13.2396 15.3228ZM16.8854 18.9687C16.6875 19.1562 16.4167 19.2708 16.1458 19.2708C15.875 19.2708 15.6042 19.1562 15.4062 18.9687C15.2187 18.7708 15.1042 18.4999 15.1042 18.2291C15.1042 17.9583 15.2187 17.6874 15.4062 17.4895C15.7917 17.1041 16.5 17.1041 16.8854 17.4895C17.0729 17.6874 17.1875 17.9583 17.1875 18.2291C17.1875 18.4999 17.0729 18.7708 16.8854 18.9687ZM16.8854 15.3228L16.7292 15.4478C16.6667 15.4895 16.6042 15.5208 16.5417 15.5416C16.4792 15.5728 16.4167 15.5937 16.3542 15.6041C16.2812 15.6145 16.2083 15.6249 16.1458 15.6249C15.875 15.6249 15.6042 15.5103 15.4062 15.3228C15.2187 15.1249 15.1042 14.8541 15.1042 14.5833C15.1042 14.3124 15.2187 14.0416 15.4062 13.8437C15.5104 13.7499 15.6146 13.677 15.75 13.6249C15.9375 13.5416 16.1458 13.5208 16.3542 13.5624C16.4167 13.5728 16.4792 13.5937 16.5417 13.6249C16.6042 13.6458 16.6667 13.677 16.7292 13.7187L16.8854 13.8437C17.0729 14.0416 17.1875 14.3124 17.1875 14.5833C17.1875 14.8541 17.0729 15.1249 16.8854 15.3228Z" fill="#103358"/>
</svg>
