<svg width="193" height="193" viewBox="0 0 193 193" fill="none" xmlns="http://www.w3.org/2000/svg">
<path d="M96.5 140.415C46.5356 140.415 6.03125 121.513 6.03125 98.1963V125.337C6.03125 148.654 46.5356 167.556 96.5 167.556C146.464 167.556 186.969 148.654 186.969 125.337V98.1963C186.969 121.513 146.464 140.415 96.5 140.415Z" fill="#F4B2B0"/>
<path d="M96.5 92.165C58.1936 92.165 27.1406 77.3135 27.1406 58.9932V89.1494C27.1406 107.47 58.1936 122.321 96.5 122.321C134.806 122.321 165.859 107.47 165.859 89.1494V58.9932C165.859 77.3135 134.806 92.165 96.5 92.165Z" fill="#F4B2B0"/>
<path d="M168.875 69.3575V58.9932C168.875 38.701 137.084 22.8057 96.5 22.8057C55.9157 22.8057 24.125 38.701 24.125 58.9932V69.3575C10.5072 77.3621 3.01562 87.5515 3.01562 98.1963V125.337C3.01562 150.702 44.0786 170.571 96.5 170.571C148.921 170.571 189.984 150.702 189.984 125.337V98.1963C189.984 87.5515 182.493 77.3617 168.875 69.3575ZM96.5 28.8369C132.462 28.8369 162.844 42.6473 162.844 58.9932C162.844 75.339 132.462 89.1494 96.5 89.1494C60.5379 89.1494 30.1562 75.339 30.1562 58.9932C30.1562 42.6473 60.5379 28.8369 96.5 28.8369ZM96.5 95.1807C126.557 95.1807 151.776 86.4572 162.844 73.6909V89.1494C162.844 105.497 132.462 119.306 96.5 119.306C60.5379 119.306 30.1562 105.497 30.1562 89.1494V73.6909C41.2243 86.4572 66.4425 95.1807 96.5 95.1807ZM24.125 76.4457V89.1494C24.125 109.44 55.9157 125.337 96.5 125.337C137.084 125.337 168.875 109.44 168.875 89.1494V76.4457C178.641 82.9304 183.953 90.5374 183.953 98.1963C183.953 119.447 143.905 137.399 96.5 137.399C49.0951 137.399 9.04688 119.447 9.04688 98.1963C9.04688 90.5374 14.3593 82.9304 24.125 76.4457ZM183.953 125.337C183.953 146.588 143.905 164.54 96.5 164.54C49.0951 164.54 9.04688 146.588 9.04688 125.337V114.461C22.2821 131.56 55.9896 143.431 96.5 143.431C137.01 143.431 170.718 131.56 183.953 114.461V125.337Z" fill="#B3404A"/>
<path d="M75.4803 56.7092C75.6747 57.485 76.1692 58.1518 76.855 58.5633C77.5408 58.9747 78.3619 59.0971 79.1379 58.9034C80.7531 58.5001 81.7355 56.8626 81.3318 55.2459L80.0301 50.0394L81.916 51.1171C89.0518 55.1957 93.484 62.8335 93.484 71.0515V77.0827C93.484 77.8825 93.8017 78.6496 94.3672 79.2151C94.9328 79.7807 95.6998 80.0984 96.4996 80.0984C97.2994 80.0984 98.0664 79.7807 98.632 79.2151C99.1975 78.6496 99.5152 77.8825 99.5152 77.0827V71.0515C99.5152 62.8335 103.947 55.1961 111.083 51.1171L112.969 50.0394L111.667 55.2459C111.264 56.8626 112.246 58.5001 113.861 58.9034C114.637 59.0971 115.458 58.9747 116.144 58.5633C116.83 58.1518 117.324 57.485 117.519 56.7092L120.535 44.6467C120.938 43.0299 119.956 41.3924 118.341 40.9891L106.278 37.9735C104.669 37.5701 103.025 38.5521 102.621 40.1673C102.217 41.7841 103.199 43.4216 104.814 43.8249L109.596 45.0202L108.091 45.8805C102.976 48.8037 99.015 53.2031 96.4996 58.3354C93.9842 53.2031 90.0232 48.8037 84.9083 45.8805L83.4027 45.0202L88.1848 43.8249C89.8 43.4216 90.7824 41.7841 90.3786 40.1673C89.9738 38.5521 88.3318 37.5698 86.7211 37.9735L74.6586 40.9891C73.0433 41.3924 72.061 43.0299 72.4647 44.6467L75.4803 56.7092Z" fill="#B3404A"/>
</svg>
