<svg width="223" height="223" viewBox="0 0 223 223" fill="none" xmlns="http://www.w3.org/2000/svg">
<path fill-rule="evenodd" clip-rule="evenodd" d="M178.692 191.578C179.641 191.578 180.551 191.955 181.222 192.626C181.893 193.297 182.27 194.207 182.27 195.156C182.27 196.105 181.893 197.015 181.222 197.686C180.551 198.357 179.641 198.734 178.692 198.734H17.3509C12.5956 198.734 8.27989 196.797 5.15484 193.671C2.02935 190.546 0.0917969 186.23 0.0917969 181.475V145.425C0.0917969 138.158 3.05404 131.562 7.83128 126.785C12.609 122.007 19.2048 119.045 26.4715 119.045V119.059H196.528V119.045C201.819 119.045 206.625 116.885 210.108 113.402C213.592 109.918 215.752 105.113 215.752 99.8213V55.9871C215.752 53.2073 214.616 50.6816 212.785 48.8505C210.954 47.0194 208.428 45.8838 205.648 45.8838H71.547C70.598 45.8838 69.6879 45.5068 69.0168 44.8358C68.3458 44.1648 67.9688 43.2546 67.9688 42.3057C67.9688 41.3567 68.3458 40.4466 69.0168 39.7755C69.6879 39.1045 70.598 38.7275 71.547 38.7275H205.648C210.404 38.7275 214.719 40.6655 217.845 43.7906C220.97 46.9156 222.908 51.2313 222.908 55.9866V99.8209C222.908 107.088 219.946 113.684 215.168 118.461C210.391 123.239 203.795 126.201 196.528 126.201V126.187H26.472V126.201C21.1804 126.201 16.3749 128.36 12.8912 131.844C9.40789 135.327 7.24805 140.133 7.24805 145.425V181.474C7.24805 184.254 8.38321 186.78 10.2148 188.611C12.0459 190.442 14.5711 191.577 17.3513 191.577H178.692V191.578Z" fill="#A79BA7"/>
<path fill-rule="evenodd" clip-rule="evenodd" d="M172.151 167.891H215.393C218.497 167.891 221.037 170.431 221.037 173.536V216.777C221.037 219.881 218.497 222.421 215.393 222.421H172.151C169.047 222.421 166.507 219.881 166.507 216.777V173.536C166.506 170.431 169.047 167.891 172.151 167.891Z" fill="#8AC9FE"/>
<path fill-rule="evenodd" clip-rule="evenodd" d="M206.447 167.891H215.393C218.497 167.891 221.037 170.431 221.037 173.536V216.777C221.037 219.881 218.497 222.421 215.393 222.421H206.447C209.551 222.421 212.091 219.881 212.091 216.777V173.536C212.092 170.431 209.552 167.891 206.447 167.891Z" fill="#60B7FF"/>
<path fill-rule="evenodd" clip-rule="evenodd" d="M179.74 196.568C179.401 196.237 179.132 195.842 178.947 195.406C178.762 194.971 178.666 194.503 178.663 194.029C178.66 193.556 178.752 193.087 178.932 192.649C179.112 192.212 179.376 191.814 179.711 191.479C180.046 191.145 180.443 190.88 180.881 190.7C181.319 190.52 181.788 190.429 182.261 190.431C182.734 190.434 183.203 190.53 183.638 190.715C184.074 190.9 184.469 191.169 184.799 191.508L191.467 198.176L202.493 184.545C202.786 184.171 203.15 183.858 203.564 183.626C203.979 183.394 204.435 183.246 204.907 183.192C205.379 183.138 205.857 183.179 206.314 183.311C206.77 183.444 207.195 183.666 207.564 183.965C207.934 184.264 208.24 184.634 208.465 185.052C208.69 185.47 208.829 185.929 208.875 186.402C208.921 186.875 208.872 187.353 208.731 187.806C208.591 188.26 208.361 188.681 208.056 189.046L194.546 205.746C194.232 206.14 193.839 206.463 193.391 206.695C192.944 206.926 192.452 207.06 191.949 207.088C191.447 207.117 190.943 207.038 190.473 206.859C190.002 206.679 189.575 206.402 189.218 206.046L179.74 196.568Z" fill="#ECEFF1"/>
<path fill-rule="evenodd" clip-rule="evenodd" d="M41.0581 174.372H129.088C133.303 174.372 136.751 177.82 136.751 182.035V208.278C136.751 212.493 133.303 215.94 129.088 215.94H41.0581C36.8435 215.94 33.3955 212.493 33.3955 208.278V182.035C33.3955 177.82 36.8439 174.372 41.0581 174.372Z" fill="#FE646F"/>
<path fill-rule="evenodd" clip-rule="evenodd" d="M131.785 174.866C134.679 175.963 136.751 178.769 136.751 182.035V208.278C136.751 212.493 133.302 215.941 129.088 215.941H41.0579C37.7911 215.941 34.9858 213.869 33.8887 210.975C34.7502 211.301 35.6639 211.468 36.5852 211.468H124.616C128.83 211.468 132.278 208.02 132.278 203.806V177.562C132.278 176.615 132.103 175.706 131.785 174.866Z" fill="#FD4755"/>
<path fill-rule="evenodd" clip-rule="evenodd" d="M120.02 191.579C120.969 191.579 121.879 191.956 122.55 192.627C123.221 193.298 123.598 194.208 123.598 195.157C123.598 196.106 123.221 197.016 122.55 197.687C121.879 198.358 120.969 198.735 120.02 198.735H97.5366C96.5876 198.735 95.6775 198.358 95.0065 197.687C94.3354 197.016 93.9585 196.106 93.9585 195.157C93.9585 194.208 94.3354 193.298 95.0065 192.627C95.6775 191.956 96.5876 191.579 97.5366 191.579H120.02ZM83.8511 191.579C84.8001 191.579 85.7102 191.956 86.3813 192.627C87.0523 193.298 87.4293 194.208 87.4293 195.157C87.4293 196.106 87.0523 197.016 86.3813 197.687C85.7102 198.358 84.8001 198.735 83.8511 198.735H50.126C49.177 198.735 48.2669 198.358 47.5959 197.687C46.9248 197.016 46.5479 196.106 46.5479 195.157C46.5479 194.208 46.9248 193.298 47.5959 192.627C48.2669 191.956 49.177 191.579 50.126 191.579H83.8511Z" fill="#ECEFF1"/>
<path fill-rule="evenodd" clip-rule="evenodd" d="M68.5819 101.839H162.803C163.939 101.839 164.916 102.314 165.617 103.207C166.318 104.099 166.549 105.161 166.28 106.264L157.895 140.677C157.5 142.3 156.089 143.408 154.418 143.408H60.1971C59.0619 143.408 58.0846 142.933 57.3833 142.04C56.682 141.147 56.4516 140.085 56.7205 138.982L65.1053 104.57C65.5007 102.946 66.911 101.839 68.5819 101.839Z" fill="#FFE177"/>
<path fill-rule="evenodd" clip-rule="evenodd" d="M161.795 101.839H162.803C163.939 101.839 164.916 102.314 165.617 103.207C166.318 104.099 166.549 105.161 166.28 106.264L157.895 140.677C157.5 142.3 156.089 143.408 154.418 143.408H60.1971C59.0619 143.408 58.0846 142.933 57.3833 142.04C56.682 141.147 56.4516 140.085 56.7205 138.982L56.7321 138.935H149.945C151.616 138.935 153.026 137.827 153.422 136.204L161.795 101.839Z" fill="#FFD064"/>
<path fill-rule="evenodd" clip-rule="evenodd" d="M76.5527 126.201C75.6038 126.201 74.6936 125.824 74.0226 125.153C73.3516 124.482 72.9746 123.572 72.9746 122.623C72.9746 121.674 73.3516 120.764 74.0226 120.093C74.6936 119.422 75.6038 119.045 76.5527 119.045H99.0363C99.9853 119.045 100.895 119.422 101.566 120.093C102.237 120.764 102.614 121.674 102.614 122.623C102.614 123.572 102.237 124.482 101.566 125.153C100.895 125.824 99.9853 126.201 99.0363 126.201H76.5527ZM112.722 126.201C111.773 126.201 110.863 125.824 110.192 125.153C109.521 124.482 109.144 123.572 109.144 122.623C109.144 121.674 109.521 120.764 110.192 120.093C110.863 119.422 111.773 119.045 112.722 119.045H146.447C147.396 119.045 148.306 119.422 148.977 120.093C149.648 120.764 150.025 121.674 150.025 122.623C150.025 123.572 149.648 124.482 148.977 125.153C148.306 125.824 147.396 126.201 146.447 126.201H112.722Z" fill="#ECEFF1"/>
<path fill-rule="evenodd" clip-rule="evenodd" d="M114.998 21.5215H191.598C195.812 21.5215 199.26 24.9695 199.26 29.184V55.4278C199.26 59.6424 195.812 63.0904 191.598 63.0904H114.998C110.784 63.0904 107.336 59.6424 107.336 55.4278V29.1836C107.336 24.9695 110.784 21.5215 114.998 21.5215Z" fill="#6CF5C2"/>
<path fill-rule="evenodd" clip-rule="evenodd" d="M194.294 22.0151C197.188 23.1123 199.26 25.918 199.26 29.1844V55.4281C199.26 59.6427 195.812 63.0907 191.597 63.0907H114.998C111.732 63.0907 108.926 61.0189 107.829 58.1247C108.691 58.4512 109.604 58.6184 110.526 58.618H187.125C191.339 58.618 194.787 55.17 194.787 50.9555V24.7113C194.788 23.7901 194.62 22.8766 194.294 22.0151Z" fill="#00E499"/>
<path fill-rule="evenodd" clip-rule="evenodd" d="M184.379 38.7275C185.328 38.7275 186.239 39.1045 186.91 39.7755C187.581 40.4466 187.958 41.3567 187.958 42.3057C187.958 43.2546 187.581 44.1648 186.91 44.8358C186.239 45.5068 185.328 45.8838 184.379 45.8838H164.383C163.434 45.8838 162.524 45.5068 161.853 44.8358C161.182 44.1648 160.805 43.2546 160.805 42.3057C160.805 41.3567 161.182 40.4466 161.853 39.7755C162.524 39.1045 163.434 38.7275 164.383 38.7275H184.379ZM152.211 38.7275C153.16 38.7275 154.07 39.1045 154.741 39.7755C155.412 40.4466 155.789 41.3567 155.789 42.3057C155.789 43.2546 155.412 44.1648 154.741 44.8358C154.07 45.5068 153.16 45.8838 152.211 45.8838H122.216C121.267 45.8838 120.357 45.5068 119.686 44.8358C119.015 44.1648 118.638 43.2546 118.638 42.3057C118.638 41.3567 119.015 40.4466 119.686 39.7755C120.357 39.1045 121.267 38.7275 122.216 38.7275H152.211Z" fill="#ECEFF1"/>
<path fill-rule="evenodd" clip-rule="evenodd" d="M52.9827 12.7268C55.7809 13.4429 58.4625 14.555 60.9463 16.0294L70.9149 8.81184L78.8915 16.7884L71.6739 26.757C73.1477 29.2411 74.2596 31.9226 74.9761 34.7206L87.1252 36.6653V47.9458L74.9765 49.8905C74.2604 52.6888 73.1483 55.3706 71.6739 57.8545L78.8915 67.8232L70.9149 75.7997L60.9463 68.5822C58.4622 70.0559 55.7807 71.1678 52.9827 71.8843L51.038 84.0334H39.7571L37.8123 71.8848C35.014 71.1687 32.3322 70.0566 29.8483 68.5822L19.8797 75.7997L11.9031 67.8232L19.1207 57.8545C17.6469 55.3705 16.535 52.689 15.8185 49.8909L3.66943 47.9462V36.6658L15.8185 34.721C16.5344 31.9229 17.6462 29.2413 19.1202 26.7575L11.9031 16.7884L19.8797 8.81184L29.8479 16.0289C32.332 14.5546 35.0139 13.4427 37.8123 12.7268L39.7571 0.578125H51.038L52.9827 12.7268Z" fill="#FFE177"/>
<path fill-rule="evenodd" clip-rule="evenodd" d="M71.3255 49.8911C70.6095 52.6895 69.4974 55.3713 68.0229 57.8551L75.2404 67.8238L68.7976 74.2667L70.9158 75.8003L78.8924 67.8238L71.6748 57.8551C73.149 55.3711 74.2611 52.6894 74.9774 49.8911L87.1261 47.9464V36.6659L74.977 34.7212C74.2607 31.9231 73.1487 29.2416 71.6748 26.7576L78.8924 16.789L70.9154 8.81201L68.7971 10.3457L75.24 16.7885L68.0225 26.7572C69.4962 29.2412 70.6081 31.9228 71.3246 34.7208L83.4737 36.6655V47.946L71.3255 49.8911Z" fill="#FFD064"/>
<path d="M61.351 47.1373C64.0378 38.3327 59.0783 29.0171 50.2738 26.3304C41.4692 23.6436 32.1537 28.603 29.4669 37.4076C26.7801 46.2121 31.7395 55.5277 40.5441 58.2145C49.3486 60.9012 58.6642 55.9418 61.351 47.1373Z" fill="#ECEFF1"/>
<path fill-rule="evenodd" clip-rule="evenodd" d="M32.3814 42.306C32.3814 50.8944 38.8771 57.9656 47.2235 58.8749C46.617 58.9409 46.0074 58.9739 45.3973 58.9738C36.1921 58.9738 28.7295 51.5112 28.7295 42.306C28.7259 39.7736 29.3016 37.2738 30.4126 34.9981C33.1208 29.4556 38.8131 25.6382 45.3973 25.6382C46.0145 25.6382 46.6233 25.6717 47.2235 25.737C40.6438 26.454 35.2144 31 33.2107 37.0998C32.6596 38.7802 32.3797 40.5376 32.3814 42.306Z" fill="#D1D1D6"/>
</svg>
