<svg width="176" height="187" viewBox="0 0 176 187" fill="none" xmlns="http://www.w3.org/2000/svg">
<path d="M86.8216 11.3032C82.7204 12.3232 78.3584 15.6915 74.6128 17.7552L61.5268 24.8714L35.9952 38.9378C30.0212 42.2112 22.364 45.4609 17.4805 50.3237C13.1659 54.6171 11.9806 61.6384 11.6724 67.45C11.6314 75.8419 12.4255 84.2171 14.043 92.4516C14.043 92.4516 25.351 155.928 87.0824 186.409C87.2246 173.837 85.5178 161.075 85.66 148.456L86.4422 72.882L87.0349 15.8339C87.1329 14.3204 87.0614 12.8007 86.8216 11.3032Z" fill="#00CE6F"/>
<path d="M86.8218 11.3032C90.923 12.3232 95.7116 15.6915 99.4572 17.7552L112.543 24.8714L138.075 38.9378C144.049 42.2112 151.706 45.4609 156.59 50.3237C160.904 54.6171 162.09 61.6384 162.398 67.45C162.439 75.8419 161.645 84.2171 160.027 92.4516C160.027 92.4516 148.719 156.023 87.0825 186.504C86.964 173.932 88.6471 161.17 88.5048 148.551L87.7226 72.9769L87.13 15.9287C86.9475 14.3932 86.8446 12.8494 86.8218 11.3032Z" fill="#00CE6F"/>
<rect x="81.1953" y="21.7314" width="12.5143" height="159.21" fill="#00CE6F"/>
<path d="M81.8906 20.3412L88.4953 14.4316L90.9287 21.0364V28.6841L81.1953 25.9031L81.8906 20.3412Z" fill="#00CE6F"/>
<path d="M106.556 81.1597C107.715 80.0002 109.595 80.0002 110.755 81.1597C111.914 82.319 111.914 84.1985 110.755 85.3579L79.4688 116.644C78.9133 117.203 78.1573 117.514 77.3711 117.514H77.3584C76.5681 117.51 75.8125 117.194 75.2549 116.628H75.2539L62.7402 103.919C61.5883 102.751 61.6051 100.872 62.7715 99.7212H62.7725C63.9391 98.5744 65.8216 98.5845 66.9707 99.7534L77.3838 110.331L106.556 81.1597Z" fill="white" stroke="white" stroke-width="1.24336"/>
<path d="M15.2404 6.12256C15.4476 6.80075 15.3157 8.14772 15.5324 9.14617C15.7141 10.0402 16.0318 10.901 16.4743 11.6988C16.917 12.443 17.7177 13.5827 18.6031 13.7805C18.7792 13.82 18.9597 13.8358 19.14 13.8276H22.1071C19.4791 14.6848 14.9954 16.0694 15.2121 20.0821C15.2121 20.0821 13.6391 14.8355 8.72217 13.8276C8.75043 13.8276 15.1273 13.7428 15.2404 6.12256Z" stroke="#950683" stroke-width="1.24336" stroke-miterlimit="10" stroke-linecap="round"/>
<path d="M162.183 154.007C162.39 154.686 162.259 156.032 162.475 157.031C162.657 157.925 162.975 158.786 163.417 159.584C163.86 160.328 164.661 161.467 165.546 161.665C165.722 161.705 165.903 161.721 166.083 161.712H169.05C166.422 162.57 161.938 163.954 162.155 167.967C162.155 167.967 160.582 162.72 155.665 161.712C155.693 161.712 162.07 161.628 162.183 154.007Z" stroke="#F2C94C" stroke-width="1.24336" stroke-miterlimit="10" stroke-linecap="round"/>
<circle cx="161.072" cy="11.303" r="4.7097" fill="#F2994A"/>
<circle cx="14.1291" cy="162.013" r="4.7097" fill="#EB5757"/>
</svg>
