<svg width="17" height="18" viewBox="0 0 17 18" fill="none" xmlns="http://www.w3.org/2000/svg">
<g clip-path="url(#clip0_4645_7421)">
<path d="M14.2088 3.25597C12.6732 1.72031 10.6314 0.874573 8.45965 0.874573C6.2879 0.874573 4.24612 1.72031 2.71046 3.25597C1.17481 4.79162 0.329102 6.83338 0.329102 9.00512C0.329102 11.1769 1.17481 13.2187 2.71046 14.7543C4.24612 16.2899 6.2879 17.1357 8.45965 17.1357C10.6314 17.1357 12.6732 16.2899 14.2088 14.7543C15.7445 13.2186 16.5902 11.1769 16.5902 9.00512C16.5902 6.83338 15.7445 4.79159 14.2088 3.25597ZM8.45965 15.5398C4.85639 15.5398 1.92498 12.6084 1.92498 9.00512C1.92498 8.99921 1.92517 8.99337 1.9252 8.98753C1.9252 8.98603 1.92498 8.9846 1.92498 8.98311C1.92498 8.9806 1.92529 8.97819 1.92536 8.97571C1.94121 5.41564 4.81824 2.51923 8.37085 2.47159C8.37828 2.47124 8.38565 2.47048 8.39318 2.47048C8.39769 2.47048 8.40207 2.47102 8.40655 2.47115C8.42427 2.47102 8.44193 2.47048 8.45968 2.47048C12.0629 2.47048 14.9944 5.40192 14.9944 9.00515C14.9944 12.6084 12.0629 15.5398 8.45965 15.5398Z" fill="#103358"/>
<path d="M13.4244 9.39774C13.1587 9.39774 12.9433 9.18235 12.9433 8.91665C12.9433 8.65094 13.1587 8.43554 13.4244 8.43554H14.0043C13.7319 5.76529 11.5663 3.647 8.8753 3.44812V3.95294C8.8753 4.21865 8.65991 4.43404 8.3942 4.43404C8.1285 4.43404 7.9131 4.21865 7.9131 3.95294V3.45962C5.26191 3.71941 3.15009 5.84485 2.91116 8.50202H3.4305C3.69621 8.50202 3.9116 8.71741 3.9116 8.98312C3.9116 9.24882 3.69621 9.46422 3.4305 9.46422H2.90723C3.12843 12.1642 5.28259 14.3249 7.97961 14.5567V13.9468C7.97961 13.6811 8.195 13.4657 8.46071 13.4657C8.72641 13.4657 8.94181 13.6811 8.94181 13.9468V14.5567C11.6609 14.323 13.8282 12.1286 14.0192 9.39774H13.4244ZM10.4082 7.73803L8.80092 9.34537C8.75625 9.39005 8.70322 9.42549 8.64485 9.44967C8.58648 9.47386 8.52392 9.4863 8.46074 9.4863C8.39756 9.4863 8.335 9.47386 8.27663 9.44967C8.21826 9.42549 8.16523 9.39005 8.12056 9.34537L5.32273 6.54754C5.13484 6.35968 5.13484 6.05507 5.32273 5.86718C5.51059 5.67929 5.8152 5.67929 6.00309 5.86718L8.46077 8.32483L9.72793 7.05767C9.91579 6.86978 10.2204 6.86978 10.4083 7.05767C10.5961 7.24553 10.5961 7.55017 10.4082 7.73803Z" fill="#103358"/>
</g>
<defs>
<clipPath id="clip0_4645_7421">
<rect width="16.2611" height="16.2611" fill="white" transform="translate(0.329102 0.874634)"/>
</clipPath>
</defs>
</svg>
