<svg width="31" height="30" viewBox="0 0 31 30" fill="none" xmlns="http://www.w3.org/2000/svg">
<g clip-path="url(#clip0_4645_7859)">
<path d="M29.1475 10.6046H28.2686V9.72571C28.2686 9.23991 27.8754 8.8468 27.3896 8.8468C26.9038 8.8468 26.5107 9.23991 26.5107 9.72571V10.6046H25.6318C25.146 10.6046 24.7529 10.9977 24.7529 11.4835C24.7529 11.9693 25.146 12.3624 25.6318 12.3624H26.5107V13.2413C26.5107 13.7271 26.9038 14.1202 27.3896 14.1202C27.8754 14.1202 28.2686 13.7271 28.2686 13.2413V12.3624H29.1475C29.6333 12.3624 30.0264 11.9693 30.0264 11.4835C30.0264 10.9977 29.6333 10.6046 29.1475 10.6046Z" fill="white"/>
<path d="M25.5732 7.08923C26.0586 7.08923 26.4521 6.69573 26.4521 6.21033C26.4521 5.72492 26.0586 5.33142 25.5732 5.33142C25.0878 5.33142 24.6943 5.72492 24.6943 6.21033C24.6943 6.69573 25.0878 7.08923 25.5732 7.08923Z" fill="white"/>
<path d="M22.0576 12.3625C22.543 12.3625 22.9365 11.969 22.9365 11.4836C22.9365 10.9982 22.543 10.6047 22.0576 10.6047C21.5722 10.6047 21.1787 10.9982 21.1787 11.4836C21.1787 11.969 21.5722 12.3625 22.0576 12.3625Z" fill="white"/>
<path d="M14.4059 21.4093C14.7492 21.066 15.3054 21.066 15.6487 21.4093L15.9063 21.6668V14.1206H14.1484V21.6668L14.4059 21.4093Z" fill="white"/>
<path d="M23.8152 14.1208H17.6629V23.7887C17.6631 23.9625 17.6116 24.1325 17.515 24.277C17.4184 24.4216 17.2811 24.5342 17.1205 24.6006C16.9599 24.6672 16.7832 24.6846 16.6126 24.6507C16.4421 24.6168 16.2855 24.5331 16.1627 24.4101L15.0262 23.2737L13.8898 24.4101C13.7671 24.5333 13.6105 24.6172 13.4399 24.6512C13.2693 24.6851 13.0925 24.6675 12.9319 24.6006C12.7713 24.5342 12.634 24.4216 12.5374 24.277C12.4408 24.1325 12.3894 23.9625 12.3895 23.7887V14.1208H11.8967L5.35832 17.8958V29.1207C5.35832 29.6065 5.75143 29.9996 6.23723 29.9996H23.8152C24.301 29.9996 24.6941 29.6065 24.6941 29.1207V14.9997C24.6941 14.5139 24.301 14.1208 23.8152 14.1208ZM21.7501 5.3868L19.9924 2.34228C19.8757 2.1405 19.6837 1.99327 19.4585 1.93289C19.2334 1.87345 18.9938 1.90489 18.7916 2.02043L16.0877 3.58159C16.0898 2.96835 15.9445 2.30338 15.6296 1.75846C15.1601 0.944772 14.4023 0.36288 13.495 0.119952C12.5895 -0.121218 11.6411 0.00235521 10.8274 0.470985C9.70051 1.12243 9.02674 2.33519 9.07133 3.63638L9.07736 3.82177C9.07736 3.82862 9.07736 3.83466 9.07824 3.84151L9.16408 6.43755L6.99689 5.08715C6.99601 5.08627 6.99431 5.08545 6.99343 5.08457L6.83552 4.98584C5.73004 4.29836 4.34472 4.27258 3.21609 4.92403C2.4024 5.39353 1.82051 6.15138 1.57758 7.05864C1.33466 7.9659 1.45917 8.91342 1.92862 9.7271C2.24942 10.2817 2.701 10.7129 3.22025 11.0108L0.466009 12.5672C0.0455423 12.8101 -0.0984217 13.3475 0.144272 13.768L1.96037 16.8127C2.20307 17.2331 2.74055 17.3772 3.16101 17.1345L21.4284 6.58743C21.8488 6.3448 21.9928 5.80726 21.7501 5.3868ZM5.85174 9.49144C5.01157 9.97466 3.93503 9.68738 3.45117 8.84826C2.96625 8.00885 3.25547 6.93079 4.09487 6.44675C4.65878 6.11974 5.35317 6.13345 5.90506 6.47763L8.38954 8.0262L5.85174 9.49144ZM14.283 4.02971C14.162 4.48247 13.8713 4.86151 13.465 5.09582L10.9265 6.56148L10.8274 3.57626C10.8166 3.25753 10.8926 2.94186 11.0475 2.66305C11.2023 2.38424 11.43 2.15281 11.7063 1.99353C12.1114 1.75752 12.5852 1.69658 13.0402 1.81758C13.4933 1.93945 13.8727 2.23043 14.107 2.63724C14.3422 3.04417 14.4049 3.57567 14.283 4.02971Z" fill="white"/>
</g>
<defs>
<clipPath id="clip0_4645_7859">
<rect width="30" height="30" fill="white" transform="translate(0.0244141 0.000244141)"/>
</clipPath>
</defs>
</svg>
