<svg width="29" height="30" viewBox="0 0 29 30" fill="none" xmlns="http://www.w3.org/2000/svg">
<g clip-path="url(#clip0_4645_7844)">
<path d="M23.0135 5.28333H21.311C20.8405 5.28333 20.4597 5.67719 20.4597 6.16399C20.4597 6.65073 20.8404 7.04465 21.311 7.04465H23.0135C23.4841 7.04465 23.8649 6.65079 23.8649 6.16399C23.8648 5.67719 23.4841 5.28333 23.0135 5.28333ZM14.411 2.24753L13.5597 0.486268C13.3478 0.051093 12.8381 -0.123457 12.4175 0.0924015C11.9968 0.30996 11.8264 0.838884 12.0367 1.27406L12.888 3.03533C13.0981 3.46874 13.6068 3.64681 14.0303 3.42919C14.4509 3.21163 14.6213 2.68271 14.411 2.24753ZM19.9892 0.0924015C19.5701 -0.123457 19.0573 0.0511516 18.8469 0.486268L17.9956 2.24753C17.7853 2.68271 17.9557 3.21157 18.3763 3.42919C18.5783 3.53349 18.8121 3.5506 19.0262 3.47675C19.2404 3.4029 19.4175 3.24414 19.5186 3.03533L20.3699 1.27406C20.5802 0.838884 20.4098 0.30996 19.9892 0.0924015ZM11.0956 5.28333H9.39304C8.92252 5.28333 8.54173 5.67719 8.54173 6.16399C8.54173 6.65073 8.92247 7.04465 9.39304 7.04465H11.0956C11.5661 7.04465 11.9469 6.65079 11.9469 6.16399C11.9469 5.67719 11.5661 5.28333 11.0956 5.28333ZM5.98792 14.1484H2.58275C2.11264 14.1484 1.73145 14.5427 1.73145 15.0291V29.1192C1.73145 29.6055 2.11258 29.9999 2.58275 29.9999H5.98787C6.45798 29.9999 6.83917 29.6056 6.83917 29.1192V15.029C6.83917 14.5427 6.4581 14.1484 5.98792 14.1484ZM27.253 16.4828C27.1029 15.1167 25.8693 14.1484 24.5402 14.1484H17.9034C18.4674 13.1036 18.7702 10.1486 18.7567 8.94145C18.7345 6.94329 17.1349 5.34204 15.2033 5.34204H14.5008C14.0303 5.34204 13.6495 5.73591 13.6495 6.2227C13.6495 8.25912 12.883 11.9348 11.4374 13.4304C10.4643 14.4369 9.63251 14.8017 8.54179 15.3656V28.5795C10.2117 29.1553 12.332 29.9999 15.5637 29.9999H21.1324C22.9673 29.9999 24.3963 28.242 23.6853 26.3845C24.7686 26.0793 25.5674 25.0515 25.5674 23.8355C25.5674 23.4923 25.5034 23.1638 25.3879 22.8619C27.2133 22.3474 27.8853 20.0157 26.6183 18.5516C27.0837 18.0137 27.3404 17.2779 27.253 16.4828Z" fill="white"/>
</g>
<defs>
<clipPath id="clip0_4645_7844">
<rect width="29" height="30" fill="white" transform="translate(0 0.000244141)"/>
</clipPath>
</defs>
</svg>
