<svg width="19" height="19" viewBox="0 0 19 19" fill="none" xmlns="http://www.w3.org/2000/svg">
<path d="M17.6357 3.69153C17.8621 3.69153 18.0459 3.87528 18.0459 4.10168C18.0459 4.32809 17.8621 4.51184 17.6357 4.51184C17.4093 4.51184 17.2256 4.32809 17.2256 4.10168C17.2256 3.87528 17.4093 3.69153 17.6357 3.69153ZM17.6357 14.3556C17.8621 14.3556 18.0459 14.5393 18.0459 14.7657C18.0459 14.9922 17.8621 15.1759 17.6357 15.1759C17.4093 15.1759 17.2256 14.9922 17.2256 14.7657C17.2256 14.5393 17.4093 14.3556 17.6357 14.3556Z" fill="#56CCF2"/>
<path d="M15.585 16.8165C16.0382 16.8165 16.4053 17.1836 16.4053 17.6368C16.4053 18.0901 16.0382 18.4572 15.585 18.4572C15.1317 18.4572 14.7646 18.0901 14.7646 17.6368C14.7646 17.1836 15.1317 16.8165 15.585 16.8165Z" fill="#F2C94C"/>
<path d="M14.7646 0.00012207C14.9911 0.00012207 15.1748 0.183872 15.1748 0.410278C15.1748 0.636685 14.9911 0.820435 14.7646 0.820435C14.5382 0.820435 14.3545 0.636685 14.3545 0.410278C14.3545 0.183872 14.5382 0.00012207 14.7646 0.00012207Z" fill="#2D9CDB"/>
<path d="M9.02246 1.23059C4.49187 1.23059 0.819336 4.90313 0.819336 9.43372C0.819336 13.9643 4.49187 17.6368 9.02246 17.6368C13.553 17.6368 17.2256 13.9643 17.2256 9.43372C17.2256 4.90313 13.553 1.23059 9.02246 1.23059Z" fill="#27AE60"/>
<path d="M9.02246 15.5861C5.62473 15.5861 2.87012 12.8315 2.87012 9.43372C2.87012 6.03598 5.62473 3.28137 9.02246 3.28137C12.4202 3.28137 15.1748 6.03598 15.1748 9.43372C15.1748 12.8315 12.4202 15.5861 9.02246 15.5861Z" fill="white"/>
<path d="M12.0719 7.4945C12.3923 7.81483 12.3923 8.33409 12.0719 8.65442L9.17172 11.555L8.0118 12.715L6.85146 11.555L5.98152 10.6847C5.8216 10.5247 5.74121 10.3147 5.74121 10.1047C5.74121 9.89474 5.8216 9.68474 5.98152 9.52473C6.30189 9.2044 6.82115 9.2044 7.14144 9.52473L8.0118 10.3947L10.9121 7.4945C11.0724 7.33454 11.282 7.25415 11.492 7.25415C11.702 7.25415 11.9116 7.33454 12.0719 7.4945Z" fill="#219653"/>
<path d="M2.87012 17.6368C3.09652 17.6368 3.28027 17.8206 3.28027 18.047C3.28027 18.2734 3.09652 18.4572 2.87012 18.4572C2.64367 18.4572 2.45996 18.2734 2.45996 18.047C2.45996 17.8206 2.64367 17.6368 2.87012 17.6368Z" fill="#2D9CDB"/>
<path d="M1.84473 0.820435C2.41115 0.820435 2.87012 1.2794 2.87012 1.84583C2.87012 2.41225 2.41115 2.87122 1.84473 2.87122C1.27826 2.87122 0.819336 2.41225 0.819336 1.84583C0.819336 1.2794 1.27826 0.820435 1.84473 0.820435Z" fill="#F2C94C"/>
<path d="M0.40918 4.10168C0.635586 4.10168 0.819336 4.28543 0.819336 4.51184C0.819336 4.73825 0.635586 4.922 0.40918 4.922C0.182732 4.922 -0.000976562 4.73825 -0.000976562 4.51184C-0.000976562 4.28543 0.182732 4.10168 0.40918 4.10168ZM0.40918 14.3556C0.635586 14.3556 0.819336 14.5393 0.819336 14.7657C0.819336 14.9922 0.635586 15.1759 0.40918 15.1759C0.182732 15.1759 -0.000976562 14.9922 -0.000976562 14.7657C-0.000976562 14.5393 0.182732 14.3556 0.40918 14.3556Z" fill="#F2994A"/>
<path d="M13.9443 9.43372C13.9443 9.20719 13.7607 9.02356 13.5342 9.02356C13.3077 9.02356 13.124 9.20719 13.124 9.43372C13.124 11.6954 11.2841 13.5353 9.02246 13.5353C8.79593 13.5353 8.6123 13.7189 8.6123 13.9454V15.5721C8.7479 15.5811 8.88461 15.5861 9.02246 15.5861C9.16031 15.5861 9.29698 15.5811 9.43262 15.5721V14.3387C11.9553 14.1295 13.9443 12.0095 13.9443 9.43372ZM4.10059 9.43372C4.10059 9.6602 4.28421 9.84387 4.51074 9.84387C4.73723 9.84387 4.9209 9.6602 4.9209 9.43372C4.9209 7.17211 6.76082 5.33215 9.02246 5.33215C9.24895 5.33215 9.43262 5.14853 9.43262 4.922V3.29532C9.29698 3.28638 9.16031 3.28137 9.02246 3.28137C8.88461 3.28137 8.7479 3.28638 8.6123 3.29532V4.52878C6.0896 4.73792 4.10059 6.85793 4.10059 9.43372Z" fill="#6FCF97"/>
</svg>
