<svg width="206" height="168" viewBox="0 0 206 168" fill="none" xmlns="http://www.w3.org/2000/svg">
<path d="M1.67347 152.145C1.30628 151.756 0.693097 151.738 0.303912 152.105C-0.0852731 152.473 -0.103003 153.086 0.264189 153.475L0.929302 154.18C1.11987 154.382 1.37671 154.484 1.63414 154.484C1.87267 154.484 2.11168 154.396 2.29886 154.219C2.68805 153.852 2.70578 153.239 2.33858 152.85L1.67347 152.145Z" fill="#398AC8"/>
<path d="M5.08841 155.454L4.36323 154.812C3.9627 154.457 3.35039 154.494 2.9956 154.894C2.64081 155.295 2.67782 155.907 3.07834 156.262L3.80352 156.904C3.9879 157.068 4.21722 157.148 4.44558 157.148C4.71327 157.148 4.9797 157.038 5.17115 156.822C5.52603 156.421 5.48902 155.809 5.08841 155.454Z" fill="#398AC8"/>
<path d="M8.05978 157.804L7.28063 157.228C6.85037 156.911 6.24368 157.002 5.9258 157.432C5.60802 157.863 5.69928 158.469 6.12974 158.787L6.90889 159.363C7.08202 159.49 7.28364 159.552 7.48361 159.552C7.78056 159.552 8.07383 159.416 8.26382 159.159C8.5815 158.728 8.49024 158.122 8.05978 157.804Z" fill="#398AC8"/>
<path d="M14.5672 161.669L13.6986 161.241C13.2187 161.004 12.6378 161.201 12.401 161.681C12.1642 162.161 12.3613 162.742 12.8412 162.979L13.7097 163.407C13.8476 163.475 13.9938 163.507 14.1378 163.507C14.4949 163.507 14.8385 163.309 15.0073 162.967C15.244 162.487 15.047 161.906 14.5672 161.669Z" fill="#398AC8"/>
<path d="M11.2264 159.882L10.399 159.378C9.94213 159.099 9.34599 159.244 9.06745 159.701C8.78901 160.158 8.93366 160.754 9.39047 161.032L10.2179 161.537C10.3753 161.633 10.5493 161.678 10.7212 161.678C11.0479 161.678 11.3669 161.513 11.5493 161.213C11.828 160.757 11.6833 160.161 11.2264 159.882Z" fill="#398AC8"/>
<path d="M29.1003 165.683L28.1367 165.583C27.6049 165.528 27.1284 165.916 27.0735 166.448C27.0187 166.98 27.4057 167.456 27.9379 167.511L28.9016 167.61C28.9354 167.614 28.9688 167.615 29.0021 167.615C29.4925 167.615 29.9133 167.244 29.9647 166.746C30.0195 166.214 29.6324 165.738 29.1003 165.683Z" fill="#398AC8"/>
<path d="M25.3479 165.169L24.3966 164.984C23.8711 164.881 23.3627 165.224 23.2603 165.75C23.1579 166.275 23.5006 166.784 24.0259 166.886L24.9772 167.071C25.0398 167.084 25.1021 167.089 25.1636 167.089C25.6179 167.089 26.0233 166.768 26.1135 166.306C26.2159 165.78 25.8732 165.272 25.3479 165.169Z" fill="#398AC8"/>
<path d="M21.6547 164.324L20.7242 164.055C20.2105 163.907 19.6731 164.203 19.5246 164.717C19.3762 165.231 19.6725 165.768 20.1866 165.917L21.1171 166.185C21.2069 166.211 21.2973 166.224 21.3863 166.224C21.8068 166.224 22.1942 165.948 22.3167 165.523C22.4651 165.009 22.1688 164.472 21.6547 164.324Z" fill="#398AC8"/>
<path d="M18.0508 163.154L17.1473 162.804C16.6483 162.61 16.0872 162.859 15.8938 163.358C15.7005 163.856 15.9483 164.418 16.4472 164.611L17.3508 164.961C17.4659 165.006 17.5842 165.027 17.7005 165.027C18.0889 165.027 18.4554 164.792 18.6042 164.408C18.7975 163.909 18.5498 163.347 18.0508 163.154Z" fill="#398AC8"/>
<path d="M57.7791 157.956L56.9758 158.498C56.5322 158.798 56.4154 159.4 56.7147 159.843C56.9019 160.121 57.2074 160.27 57.5186 160.27C57.705 160.27 57.8936 160.217 58.0597 160.105L58.863 159.562C59.3065 159.263 59.4234 158.661 59.1241 158.217C58.8247 157.774 58.2226 157.657 57.7791 157.956Z" fill="#398AC8"/>
<path d="M54.5736 160.004L53.7325 160.485C53.2679 160.75 53.1065 161.342 53.372 161.807C53.5508 162.12 53.8777 162.295 54.2141 162.295C54.377 162.295 54.5422 162.254 54.6938 162.167L55.535 161.687C55.9996 161.421 56.161 160.829 55.8955 160.365C55.63 159.9 55.0382 159.739 54.5736 160.004Z" fill="#398AC8"/>
<path d="M51.2247 161.773L50.3443 162.177C49.8579 162.4 49.6447 162.975 49.8678 163.462C50.031 163.817 50.382 164.027 50.749 164.027C50.8841 164.027 51.0215 163.998 51.1525 163.938L52.0329 163.534C52.5192 163.311 52.7325 162.736 52.5094 162.25C52.2861 161.763 51.7109 161.55 51.2247 161.773Z" fill="#398AC8"/>
<path d="M44.1221 164.387L43.1839 164.63C42.6658 164.763 42.3543 165.292 42.488 165.81C42.6008 166.247 42.9942 166.537 43.4255 166.537C43.5056 166.537 43.5871 166.527 43.6684 166.506L44.6065 166.264C45.1246 166.13 45.4361 165.601 45.3024 165.083C45.1686 164.565 44.6405 164.254 44.1221 164.387Z" fill="#398AC8"/>
<path d="M47.7323 163.238L46.8193 163.562C46.3149 163.741 46.051 164.294 46.2298 164.799C46.3706 165.196 46.7442 165.444 47.143 165.444C47.2503 165.444 47.3596 165.426 47.4666 165.388L48.3796 165.065C48.884 164.886 49.1479 164.332 48.9692 163.828C48.7904 163.324 48.2367 163.06 47.7323 163.238Z" fill="#398AC8"/>
<path d="M32.8836 165.862L31.9147 165.848C31.3797 165.839 30.9396 166.267 30.9317 166.802C30.9239 167.337 31.3513 167.777 31.8864 167.785L32.8552 167.799C32.86 167.8 32.8649 167.8 32.8696 167.8C33.398 167.8 33.8303 167.375 33.8381 166.845C33.8459 166.31 33.4187 165.87 32.8836 165.862Z" fill="#398AC8"/>
<path d="M36.6687 165.704L35.7027 165.777C35.1692 165.817 34.7692 166.282 34.8094 166.816C34.8478 167.325 35.2725 167.712 35.7745 167.712C35.799 167.712 35.8236 167.711 35.8484 167.709L36.8145 167.636C37.348 167.596 37.7479 167.131 37.7077 166.597C37.6674 166.064 37.2017 165.664 36.6687 165.704Z" fill="#398AC8"/>
<path d="M40.4257 165.212L39.4701 165.369C38.9421 165.456 38.5844 165.954 38.6712 166.482C38.7493 166.957 39.1601 167.294 39.626 167.294C39.6782 167.294 39.7311 167.289 39.7843 167.281L40.7399 167.124C41.2679 167.037 41.6256 166.538 41.5388 166.01C41.4521 165.483 40.9536 165.124 40.4257 165.212Z" fill="#398AC8"/>
<path d="M93.9756 109.382L93.6331 110.288C93.444 110.789 93.6964 111.348 94.197 111.537C94.3098 111.58 94.4254 111.6 94.5393 111.6C94.9306 111.6 95.2992 111.361 95.4457 110.973L95.7882 110.067C95.9773 109.567 95.725 109.007 95.2244 108.818C94.724 108.63 94.1647 108.882 93.9756 109.382Z" fill="#398AC8"/>
<path d="M93.9679 114.599L94.3473 113.708C94.5569 113.216 94.3277 112.647 93.8354 112.437C93.343 112.228 92.774 112.457 92.5645 112.949L92.1851 113.84C91.9755 114.333 92.2047 114.902 92.697 115.111C92.8208 115.164 92.9495 115.189 93.0761 115.189C93.4527 115.189 93.8111 114.968 93.9679 114.599Z" fill="#398AC8"/>
<path d="M88.8452 122.933C88.3776 122.673 87.7876 122.841 87.5274 123.308L87.0562 124.154C86.7958 124.621 86.9637 125.211 87.4312 125.472C87.5805 125.555 87.7422 125.595 87.9017 125.595C88.2418 125.595 88.5718 125.415 88.749 125.097L89.2202 124.251C89.4806 123.784 89.3127 123.194 88.8452 122.933Z" fill="#398AC8"/>
<path d="M90.6318 119.494C90.1559 119.249 89.5718 119.437 89.3273 119.913L88.8846 120.775C88.6401 121.251 88.8277 121.835 89.3037 122.079C89.4453 122.152 89.5966 122.186 89.7456 122.186C90.0972 122.186 90.4365 121.994 90.6082 121.66L91.0509 120.798C91.2954 120.322 91.1077 119.738 90.6318 119.494Z" fill="#398AC8"/>
<path d="M80.6206 136.061C80.19 135.744 79.5833 135.835 79.2659 136.266L78.691 137.046C78.3735 137.476 78.4652 138.083 78.896 138.4C79.069 138.528 79.2704 138.589 79.4701 138.589C79.7673 138.589 80.0608 138.453 80.2507 138.195L80.8255 137.416C81.1431 136.985 81.0513 136.379 80.6206 136.061Z" fill="#398AC8"/>
<path d="M82.8321 132.879C82.3916 132.575 81.7883 132.686 81.4846 133.127L80.9349 133.924C80.6312 134.365 80.7423 134.968 81.1828 135.272C81.3507 135.387 81.5421 135.443 81.7317 135.443C82.0396 135.443 82.3424 135.296 82.5304 135.024L83.0801 134.226C83.3838 133.785 83.2728 133.182 82.8321 132.879Z" fill="#398AC8"/>
<path d="M84.9404 129.626C84.4902 129.337 83.8908 129.467 83.6015 129.918L83.0779 130.732C82.7885 131.182 82.9188 131.782 83.3689 132.071C83.5311 132.175 83.7124 132.225 83.8919 132.225C84.2105 132.225 84.5226 132.068 84.7077 131.78L85.2314 130.965C85.5208 130.515 85.3905 129.916 84.9404 129.626Z" fill="#398AC8"/>
<path d="M86.9459 126.311C86.4871 126.036 85.892 126.185 85.6167 126.644L85.1185 127.475C84.8434 127.934 84.9923 128.529 85.4512 128.804C85.6072 128.898 85.7789 128.942 85.9485 128.942C86.2777 128.942 86.5987 128.774 86.7803 128.471L87.2785 127.641C87.5537 127.182 87.4048 126.586 86.9459 126.311Z" fill="#398AC8"/>
<path d="M60.8591 155.703L60.0894 156.291C59.6643 156.616 59.5832 157.224 59.9083 157.65C60.0989 157.899 60.3871 158.03 60.6786 158.03C60.8838 158.03 61.0907 157.965 61.2663 157.831L62.0359 157.242C62.4611 156.917 62.5422 156.309 62.2171 155.884C61.8922 155.459 61.284 155.378 60.8591 155.703Z" fill="#398AC8"/>
<path d="M63.8191 153.28L63.0811 153.908C62.6736 154.255 62.6246 154.866 62.9713 155.274C63.1631 155.499 63.4354 155.614 63.7096 155.614C63.9316 155.614 64.1549 155.539 64.3371 155.383L65.0751 154.755C65.4826 154.408 65.5316 153.797 65.1848 153.389C64.8378 152.982 64.2264 152.932 63.8191 153.28Z" fill="#398AC8"/>
<path d="M69.3911 148.02L68.7117 148.71C68.3365 149.092 68.3416 149.705 68.723 150.081C68.9118 150.266 69.1571 150.359 69.4024 150.359C69.653 150.359 69.9036 150.262 70.0932 150.069L70.7725 149.379C71.1477 148.997 71.1426 148.384 70.7612 148.008C70.3797 147.633 69.7663 147.638 69.3911 148.02Z" fill="#398AC8"/>
<path d="M66.6596 150.712L65.9519 151.373C65.561 151.739 65.5401 152.352 65.9055 152.743C66.0963 152.947 66.3546 153.05 66.6135 153.05C66.8505 153.05 67.0881 152.964 67.2749 152.789L67.9826 152.128C68.3735 151.763 68.3944 151.149 68.029 150.759C67.6636 150.368 67.0505 150.347 66.6596 150.712Z" fill="#398AC8"/>
<path d="M78.3092 139.172C77.8891 138.841 77.2799 138.913 76.9485 139.333L76.3487 140.094C76.0174 140.514 76.0894 141.123 76.5096 141.454C76.6873 141.595 76.8989 141.663 77.1089 141.663C77.3953 141.663 77.6791 141.536 77.8703 141.294L78.4701 140.533C78.8013 140.113 78.7293 139.504 78.3092 139.172Z" fill="#398AC8"/>
<path d="M75.8955 142.205C75.4869 141.859 74.8756 141.911 74.5301 142.319L73.9047 143.059C73.5593 143.468 73.6106 144.079 74.0192 144.425C74.2012 144.578 74.4232 144.653 74.6442 144.653C74.9195 144.653 75.193 144.537 75.3846 144.31L76.01 143.57C76.3554 143.161 76.3041 142.55 75.8955 142.205Z" fill="#398AC8"/>
<path d="M72.0123 145.218L71.36 145.934C70.9997 146.329 71.0283 146.942 71.4239 147.302C71.6096 147.472 71.8432 147.555 72.076 147.555C72.3391 147.555 72.6014 147.448 72.7926 147.238L73.4449 146.522C73.8052 146.127 73.7766 145.514 73.381 145.154C72.9854 144.793 72.3727 144.822 72.0123 145.218Z" fill="#398AC8"/>
<path d="M110.125 119.537L109.173 119.716C108.647 119.815 108.301 120.321 108.4 120.847C108.487 121.312 108.894 121.637 109.351 121.637C109.41 121.637 109.47 121.631 109.531 121.62L110.482 121.441C111.008 121.342 111.355 120.836 111.256 120.31C111.157 119.784 110.651 119.438 110.125 119.537Z" fill="#398AC8"/>
<path d="M106.408 120.061L105.441 120.12C104.907 120.152 104.501 120.612 104.533 121.146C104.564 121.66 104.991 122.056 105.499 122.056C105.519 122.056 105.539 122.055 105.559 122.054L106.526 121.995C107.06 121.963 107.467 121.504 107.434 120.97C107.402 120.436 106.941 120.029 106.408 120.061Z" fill="#398AC8"/>
<path d="M102.672 120.099L101.706 120.023C101.172 119.98 100.706 120.378 100.663 120.912C100.621 121.445 101.019 121.912 101.552 121.954L102.518 122.031C102.545 122.033 102.571 122.034 102.596 122.034C103.097 122.034 103.521 121.649 103.561 121.142C103.603 120.608 103.205 120.142 102.672 120.099Z" fill="#398AC8"/>
<path d="M95.4096 118.546L94.5112 118.184C94.0152 117.984 93.4505 118.223 93.2503 118.72C93.0501 119.216 93.2901 119.78 93.7864 119.981L94.6847 120.343C94.8035 120.391 94.9261 120.414 95.0467 120.414C95.4302 120.414 95.7933 120.184 95.9455 119.807C96.1458 119.311 95.9058 118.746 95.4096 118.546Z" fill="#398AC8"/>
<path d="M98.9805 119.6L98.0373 119.38C97.5162 119.258 96.9951 119.582 96.8733 120.103C96.7515 120.624 97.0752 121.145 97.5963 121.267L98.5395 121.487C98.6137 121.505 98.6879 121.513 98.7609 121.513C99.2009 121.513 99.5991 121.211 99.7035 120.764C99.8252 120.243 99.5015 119.722 98.9805 119.6Z" fill="#398AC8"/>
<path d="M81.0788 109.271C80.6899 109.639 80.6726 110.252 81.04 110.641L81.7052 111.345C81.8957 111.547 82.1524 111.648 82.4095 111.648C82.6482 111.648 82.8875 111.561 83.0747 111.384C83.4636 111.016 83.4809 110.403 83.1135 110.014L82.4484 109.31C82.0811 108.921 81.4679 108.904 81.0788 109.271Z" fill="#398AC8"/>
<path d="M83.8479 113.429L84.5712 114.074C84.7559 114.238 84.986 114.319 85.2153 114.319C85.482 114.319 85.7477 114.21 85.9391 113.995C86.295 113.595 86.2596 112.983 85.8601 112.627L85.1367 111.983C84.7371 111.627 84.1247 111.662 83.7688 112.062C83.413 112.461 83.4483 113.074 83.8479 113.429Z" fill="#398AC8"/>
<path d="M86.6919 114.608C86.3767 115.04 86.4716 115.646 86.9039 115.961L87.6864 116.532C87.8586 116.657 88.0584 116.718 88.2563 116.718C88.5553 116.718 88.8503 116.58 89.0399 116.32C89.3552 115.887 89.2603 115.281 88.828 114.966L88.0455 114.396C87.6132 114.08 87.0072 114.175 86.6919 114.608Z" fill="#398AC8"/>
<path d="M92.0145 116.968L91.1725 116.49C90.7073 116.225 90.1158 116.388 89.8513 116.853C89.587 117.318 89.7496 117.91 90.2148 118.174L91.0568 118.653C91.208 118.739 91.3724 118.78 91.5347 118.78C91.8718 118.78 92.1993 118.603 92.3779 118.289C92.6424 117.824 92.4797 117.233 92.0145 116.968Z" fill="#398AC8"/>
<path d="M70.2914 84.0069C70.3643 84.0235 70.4372 84.0316 70.509 84.0316C70.9505 84.0316 71.3494 83.7278 71.4524 83.2792L71.669 82.3349C71.7887 81.8134 71.463 81.2936 70.9414 81.1739C70.4203 81.055 69.9001 81.3801 69.7805 81.9016L69.5638 82.8459C69.4441 83.3673 69.7699 83.8872 70.2914 84.0069Z" fill="#398AC8"/>
<path d="M70.3275 87.8926C70.342 87.8926 70.3567 87.8923 70.3713 87.8916C70.9059 87.8679 71.32 87.4152 71.2962 86.8806L71.2531 85.9118C71.2293 85.3772 70.7746 84.9618 70.2422 84.9869C69.7076 85.0107 69.2936 85.4633 69.3174 85.9979L69.3604 86.9667C69.3835 87.4866 69.8122 87.8926 70.3275 87.8926Z" fill="#398AC8"/>
<path d="M71.8813 90.5393L71.6732 89.5922C71.5583 89.0695 71.0413 88.7388 70.5189 88.854C69.9963 88.9689 69.6658 89.4856 69.7806 90.0081L69.9887 90.9552C70.0882 91.4077 70.489 91.7162 70.934 91.7162C71.0029 91.7162 71.0728 91.7088 71.1429 91.6934C71.6657 91.5785 71.9962 91.0618 71.8813 90.5393Z" fill="#398AC8"/>
<path d="M72.7006 98.4274C72.8651 98.7796 73.2144 98.9865 73.579 98.9865C73.7162 98.9865 73.8557 98.9571 73.9884 98.8953C74.4732 98.6688 74.6826 98.0922 74.4561 97.6074L74.046 96.7293C73.8196 96.2446 73.2431 96.0353 72.7582 96.2616C72.2734 96.4881 72.0641 97.0646 72.2905 97.5495L72.7006 98.4274Z" fill="#398AC8"/>
<path d="M71.1496 94.7741C71.2902 95.1718 71.664 95.4204 72.0632 95.4204C72.1703 95.4204 72.2792 95.4025 72.386 95.3648C72.8906 95.1866 73.1549 94.6331 72.9767 94.1285L72.6541 93.2154C72.4758 92.711 71.9223 92.4464 71.4178 92.6247C70.9132 92.803 70.6488 93.3565 70.8271 93.8611L71.1496 94.7741Z" fill="#398AC8"/>
<path d="M78.6216 106.273C78.2046 106.608 78.1383 107.218 78.4736 107.635L79.0806 108.39C79.272 108.628 79.5529 108.752 79.8363 108.752C80.0493 108.752 80.2637 108.682 80.4427 108.538C80.8596 108.203 80.926 107.593 80.5907 107.176L79.9837 106.421C79.6486 106.004 79.0387 105.938 78.6216 106.273Z" fill="#398AC8"/>
<path d="M76.1497 104.443L76.6965 105.242C76.8843 105.516 77.1879 105.664 77.4971 105.664C77.6855 105.664 77.876 105.609 78.0432 105.495C78.4848 105.193 78.598 104.59 78.2959 104.148L77.749 103.349C77.4468 102.907 76.844 102.794 76.4023 103.096C75.9608 103.398 75.8476 104.001 76.1497 104.443Z" fill="#398AC8"/>
<path d="M75.7601 100.112C75.4934 99.6478 74.9011 99.4879 74.4373 99.7545C73.9734 100.021 73.8136 100.613 74.0802 101.077L74.5632 101.918C74.7424 102.229 75.0685 102.404 75.404 102.404C75.5678 102.404 75.7338 102.362 75.886 102.275C76.3499 102.008 76.5098 101.416 76.2431 100.952L75.7601 100.112Z" fill="#398AC8"/>
<path d="M96.445 105.141C95.9362 104.976 95.3895 105.254 95.2241 105.763L94.9247 106.684C94.7593 107.193 95.0377 107.74 95.5466 107.905C95.6461 107.938 95.747 107.953 95.8462 107.953C96.2546 107.953 96.6344 107.693 96.7674 107.283L97.0669 106.362C97.2323 105.853 96.9539 105.306 96.445 105.141Z" fill="#398AC8"/>
<path d="M96.2854 102.09L96.0366 103.027C95.8992 103.544 96.2071 104.075 96.7242 104.212C96.8075 104.234 96.8912 104.245 96.9736 104.245C97.4021 104.245 97.7941 103.958 97.9093 103.524L98.1581 102.588C98.2955 102.071 97.9877 101.54 97.4705 101.403C96.9534 101.265 96.4228 101.573 96.2854 102.09Z" fill="#398AC8"/>
<path d="M99.4843 95.7976L99.594 94.8353C99.6547 94.3038 99.2729 93.8236 98.7413 93.763C98.2095 93.702 97.7295 94.0842 97.6688 94.6159L97.5591 95.5781C97.4984 96.1096 97.8802 96.5898 98.4118 96.6504C98.4491 96.6547 98.4862 96.6567 98.5229 96.6567C99.0088 96.6567 99.4279 96.292 99.4843 95.7976Z" fill="#398AC8"/>
<path d="M98.8316 99.6969L99.0194 98.7461C99.1231 98.2212 98.7815 97.7115 98.2566 97.6079C97.7315 97.5043 97.2221 97.8457 97.1184 98.3706L96.9307 99.3215C96.827 99.8464 97.1685 100.356 97.6934 100.46C97.7568 100.472 97.82 100.478 97.8822 100.478C98.3354 100.478 98.7405 100.158 98.8316 99.6969Z" fill="#398AC8"/>
<path d="M95.2999 81.2913C95.4896 81.5508 95.7841 81.6884 96.0827 81.6884C96.2811 81.6884 96.4814 81.6275 96.6538 81.5014C97.0857 81.1855 97.1798 80.5793 96.8639 80.1474L96.292 79.3655C95.976 78.9336 95.3699 78.8395 94.938 79.1554C94.5061 79.4713 94.412 80.0775 94.728 80.5094L95.2999 81.2913Z" fill="#398AC8"/>
<path d="M96.5506 83.6146L96.8917 84.521C97.0379 84.9095 97.4068 85.1489 97.7987 85.1489C97.912 85.1489 98.0274 85.1288 98.1398 85.0865C98.6406 84.8981 98.8938 84.3393 98.7053 83.8385L98.3642 82.9322C98.1757 82.4314 97.617 82.178 97.1162 82.3666C96.6153 82.5552 96.3622 83.1138 96.5506 83.6146Z" fill="#398AC8"/>
<path d="M98.36 86.0397C97.8305 86.1159 97.463 86.6071 97.5393 87.1368L97.6775 88.0953C97.7471 88.578 98.1613 88.926 98.6352 88.926C98.6812 88.926 98.7278 88.9228 98.7746 88.9159C99.3042 88.8397 99.6717 88.3484 99.5953 87.8188L99.4572 86.8603C99.3808 86.3307 98.89 85.9629 98.36 86.0397Z" fill="#398AC8"/>
<path d="M98.824 89.8879C98.8221 89.8879 98.8202 89.8879 98.8182 89.8879C98.2859 89.8879 97.8527 90.3179 97.8495 90.8511L97.8438 91.8189C97.8407 92.3539 98.2718 92.7903 98.8069 92.7935C98.8088 92.7935 98.8108 92.7935 98.8127 92.7935C99.3451 92.7935 99.7783 92.3635 99.7815 91.8304L99.7872 90.8625C99.7904 90.3274 99.3591 89.891 98.824 89.8879Z" fill="#398AC8"/>
<path d="M71.3324 80.26C71.5017 80.3788 71.6958 80.4358 71.888 80.4358C72.1931 80.4358 72.4934 80.292 72.6819 80.0233L73.2378 79.2308C73.5451 78.7928 73.4391 78.1885 73.001 77.8813C72.563 77.5741 71.9587 77.68 71.6515 78.1181L71.0957 78.9105C70.7884 79.3485 70.8944 79.9528 71.3324 80.26Z" fill="#398AC8"/>
<path d="M74.5305 77.6313C74.7154 77.6313 74.9022 77.5785 75.0675 77.4681L75.8731 76.9302C76.3181 76.6331 76.4381 76.0315 76.1409 75.5865C75.8439 75.1415 75.2424 75.0216 74.7971 75.3187L73.9915 75.8566C73.5465 76.1537 73.4266 76.7553 73.7237 77.2004C73.9106 77.4801 74.2177 77.6313 74.5305 77.6313Z" fill="#398AC8"/>
<path d="M81.7611 75.1397C81.7747 75.1397 81.7883 75.1394 81.802 75.1388L82.7704 75.0986C83.305 75.0764 83.7204 74.625 83.6981 74.0904C83.676 73.5558 83.223 73.1412 82.69 73.1627L81.7216 73.2029C81.187 73.2251 80.7715 73.6764 80.7938 74.211C80.8154 74.732 81.2445 75.1397 81.7611 75.1397Z" fill="#398AC8"/>
<path d="M77.9687 75.8807C78.0599 75.8807 78.1527 75.8678 78.2448 75.8404L79.1739 75.5646C79.6868 75.4124 79.9793 74.873 79.827 74.3601C79.6748 73.8472 79.1355 73.5548 78.6225 73.707L77.6934 73.9829C77.1805 74.1351 76.888 74.6744 77.0403 75.1873C77.1652 75.6083 77.5508 75.8807 77.9687 75.8807Z" fill="#398AC8"/>
<path d="M92.1315 78.0162L92.8927 78.6151C93.0702 78.7548 93.2815 78.8226 93.4911 78.8226C93.778 78.8226 94.062 78.6957 94.2532 78.4528C94.5841 78.0324 94.5114 77.4232 94.0909 77.0924L93.3298 76.4934C92.9092 76.1624 92.3001 76.2352 91.9693 76.6557C91.6383 77.0761 91.7109 77.6853 92.1315 78.0162Z" fill="#398AC8"/>
<path d="M88.9606 76.2611L89.8467 76.6523C89.9739 76.7085 90.1068 76.735 90.2375 76.735C90.6096 76.735 90.9644 76.5195 91.1243 76.1573C91.3405 75.6678 91.1188 75.0958 90.6293 74.8797L89.7432 74.4885C89.254 74.2725 88.6818 74.494 88.4656 74.9835C88.2495 75.473 88.4711 76.0449 88.9606 76.2611Z" fill="#398AC8"/>
<path d="M85.4469 75.2944L86.3992 75.4727C86.4594 75.4841 86.5194 75.4895 86.5786 75.4895C87.0357 75.4895 87.4426 75.1644 87.5298 74.6988C87.6284 74.1728 87.2818 73.6667 86.7559 73.5682L85.8036 73.3898C85.2777 73.2912 84.7715 73.6378 84.673 74.1637C84.5745 74.6897 84.9209 75.1959 85.4469 75.2944Z" fill="#398AC8"/>
<path d="M113.774 118.591L112.846 118.871C112.334 119.025 112.043 119.565 112.198 120.077C112.324 120.497 112.708 120.767 113.125 120.767C113.217 120.767 113.311 120.754 113.404 120.726L114.333 120.447C114.845 120.293 115.135 119.753 114.981 119.24C114.827 118.728 114.287 118.437 113.774 118.591Z" fill="#398AC8"/>
<path d="M117.328 117.288L116.43 117.651C115.934 117.852 115.694 118.417 115.895 118.913C116.048 119.29 116.41 119.519 116.794 119.519C116.915 119.519 117.038 119.496 117.157 119.448L118.055 119.084C118.551 118.884 118.79 118.319 118.589 117.823C118.389 117.327 117.824 117.087 117.328 117.288Z" fill="#398AC8"/>
<path d="M124.139 113.866L123.294 114.34C122.827 114.602 122.661 115.192 122.923 115.659C123.101 115.976 123.43 116.154 123.769 116.154C123.929 116.154 124.092 116.114 124.242 116.03L125.087 115.556C125.553 115.294 125.72 114.703 125.458 114.237C125.196 113.77 124.605 113.604 124.139 113.866Z" fill="#398AC8"/>
<path d="M120.763 115.691L119.905 116.12C119.426 116.36 119.232 116.942 119.472 117.42C119.642 117.76 119.984 117.956 120.339 117.956C120.485 117.956 120.633 117.922 120.772 117.853L121.63 117.423C122.108 117.184 122.302 116.602 122.063 116.123C121.823 115.645 121.241 115.451 120.763 115.691Z" fill="#398AC8"/>
<path d="M136.801 105.225L136.043 105.828C135.625 106.162 135.555 106.771 135.889 107.19C136.08 107.43 136.362 107.555 136.647 107.555C136.859 107.555 137.072 107.486 137.25 107.344L138.008 106.741C138.427 106.407 138.496 105.798 138.162 105.379C137.829 104.961 137.219 104.892 136.801 105.225Z" fill="#398AC8"/>
<path d="M133.766 107.573L132.985 108.146C132.554 108.463 132.461 109.069 132.778 109.501C132.968 109.759 133.262 109.896 133.559 109.896C133.759 109.896 133.959 109.835 134.132 109.708L134.913 109.135C135.344 108.818 135.437 108.212 135.12 107.78C134.803 107.349 134.197 107.256 133.766 107.573Z" fill="#398AC8"/>
<path d="M130.642 109.801L129.838 110.344C129.395 110.644 129.279 111.246 129.578 111.689C129.766 111.966 130.071 112.116 130.382 112.116C130.569 112.116 130.757 112.062 130.924 111.949L131.727 111.406C132.17 111.107 132.287 110.504 131.987 110.061C131.687 109.618 131.085 109.501 130.642 109.801Z" fill="#398AC8"/>
<path d="M127.432 111.902L126.608 112.411C126.153 112.692 126.012 113.289 126.293 113.744C126.476 114.041 126.794 114.204 127.118 114.204C127.292 114.204 127.468 114.157 127.627 114.059L128.451 113.55C128.906 113.269 129.047 112.672 128.766 112.217C128.485 111.762 127.887 111.62 127.432 111.902Z" fill="#398AC8"/>
<path d="M159.429 82.9152C159.006 82.5877 158.397 82.665 158.069 83.0882L157.476 83.8546C157.149 84.2777 157.226 84.8862 157.649 85.2137C157.826 85.3503 158.034 85.4165 158.242 85.4165C158.531 85.4165 158.817 85.2873 159.008 85.0407L159.602 84.2743C159.929 83.8513 159.852 83.2427 159.429 82.9152Z" fill="#398AC8"/>
<path d="M157.047 85.9721C156.631 85.6347 156.021 85.6977 155.684 86.113L155.072 86.8652C154.735 87.2804 154.798 87.8907 155.213 88.2281C155.393 88.3741 155.609 88.445 155.824 88.445C156.105 88.445 156.385 88.3227 156.576 88.0872L157.188 87.335C157.525 86.9197 157.462 86.3096 157.047 85.9721Z" fill="#398AC8"/>
<path d="M154.592 88.9712C154.186 88.6231 153.574 88.6706 153.226 89.0772L152.596 89.8133C152.248 90.2198 152.296 90.8314 152.702 91.1794C152.885 91.3358 153.109 91.4122 153.332 91.4122C153.605 91.4122 153.877 91.2972 154.068 91.0734L154.698 90.3373C155.046 89.9309 154.999 89.3192 154.592 88.9712Z" fill="#398AC8"/>
<path d="M148.083 94.8006L147.412 95.4998C147.042 95.8859 147.055 96.4991 147.441 96.8696C147.628 97.0498 147.87 97.1393 148.111 97.1393C148.366 97.1393 148.62 97.0396 148.811 96.8412L149.481 96.142C149.852 95.7559 149.839 95.1427 149.453 94.7722C149.067 94.4018 148.454 94.4144 148.083 94.8006Z" fill="#398AC8"/>
<path d="M150.694 91.975L150.044 92.6931C149.684 93.0898 149.715 93.7025 150.112 94.0616C150.297 94.2294 150.53 94.3121 150.762 94.3121C151.026 94.3121 151.289 94.2048 151.48 93.9935L152.13 93.2754C152.489 92.8786 152.459 92.2659 152.062 91.9069C151.665 91.5477 151.053 91.5782 150.694 91.975Z" fill="#398AC8"/>
<path d="M139.75 102.766L139.014 103.397C138.608 103.745 138.561 104.356 138.909 104.763C139.101 104.986 139.372 105.101 139.645 105.101C139.868 105.101 140.093 105.024 140.275 104.868L141.011 104.237C141.418 103.888 141.465 103.277 141.116 102.87C140.768 102.464 140.156 102.417 139.75 102.766Z" fill="#398AC8"/>
<path d="M142.613 100.203L141.899 100.859C141.505 101.221 141.479 101.833 141.841 102.227C142.032 102.435 142.293 102.541 142.555 102.541C142.789 102.541 143.024 102.456 143.21 102.285L143.924 101.629C144.318 101.267 144.343 100.654 143.981 100.26C143.619 99.8665 143.006 99.8407 142.613 100.203Z" fill="#398AC8"/>
<path d="M145.388 97.545L144.697 98.2234C144.315 98.598 144.309 99.2114 144.683 99.5934C144.873 99.7869 145.124 99.8839 145.375 99.8839C145.62 99.8839 145.865 99.7916 146.053 99.6067L146.745 98.9283C147.127 98.5536 147.133 97.9403 146.758 97.5583C146.384 97.1762 145.77 97.1703 145.388 97.545Z" fill="#398AC8"/>
<path d="M161.742 79.8058C161.312 79.4876 160.706 79.5782 160.387 80.0083L159.811 80.787C159.493 81.2171 159.584 81.8238 160.014 82.142C160.187 82.2703 160.389 82.3322 160.589 82.3322C160.886 82.3322 161.179 82.1964 161.369 81.9395L161.945 81.1609C162.263 80.7309 162.172 80.1241 161.742 79.8058Z" fill="#398AC8"/>
<path d="M163.989 76.6486C163.553 76.3392 162.948 76.4426 162.639 76.879L162.079 77.6695C161.769 78.1061 161.873 78.7108 162.309 79.0201C162.479 79.1406 162.675 79.1985 162.868 79.1985C163.172 79.1985 163.471 79.0562 163.66 78.7897L164.22 77.9992C164.529 77.5626 164.426 76.958 163.989 76.6486Z" fill="#398AC8"/>
<path d="M166.176 73.4483C165.734 73.1474 165.131 73.2622 164.83 73.7046L164.285 74.506C163.984 74.9484 164.099 75.5511 164.541 75.852C164.708 75.9654 164.898 76.0198 165.085 76.0198C165.395 76.0198 165.7 75.8713 165.887 75.5957L166.432 74.7944C166.733 74.3518 166.618 73.7492 166.176 73.4483Z" fill="#398AC8"/>
<path d="M205.667 1.03603C205.667 1.02789 205.667 1.01975 205.668 1.01161C205.668 1.00057 205.668 0.989525 205.669 0.978577C205.669 0.971311 205.669 0.964236 205.669 0.95697C205.669 0.952804 205.669 0.948543 205.669 0.94428C205.669 0.93527 205.668 0.926163 205.667 0.917152C205.666 0.905429 205.666 0.893801 205.665 0.882175C205.664 0.875684 205.664 0.869291 205.663 0.8628C205.663 0.859312 205.662 0.855919 205.662 0.852528C205.661 0.842937 205.659 0.833345 205.658 0.823754C205.656 0.812031 205.654 0.800308 205.652 0.788682C205.651 0.782384 205.649 0.776086 205.648 0.769789C205.647 0.766688 205.647 0.763492 205.646 0.760392C205.644 0.750897 205.641 0.741402 205.639 0.731907C205.636 0.720669 205.633 0.709526 205.63 0.698385C205.628 0.691796 205.626 0.685306 205.624 0.678814C205.623 0.67523 205.622 0.671743 205.621 0.668158C205.618 0.659439 205.615 0.650815 205.612 0.642095C205.608 0.631729 205.604 0.621264 205.6 0.611092C205.598 0.604503 205.595 0.597917 205.592 0.591329C205.59 0.586582 205.588 0.581834 205.586 0.577087C205.583 0.56953 205.579 0.562168 205.575 0.554708C205.571 0.54531 205.567 0.535814 205.562 0.526513C205.559 0.520215 205.556 0.513822 205.552 0.507525C205.549 0.501227 205.545 0.495122 205.541 0.488921C205.54 0.486596 205.539 0.484272 205.538 0.481947C205.535 0.477587 205.532 0.473711 205.53 0.469351C205.525 0.461116 205.52 0.452882 205.515 0.44484C205.511 0.439124 205.508 0.433309 205.504 0.427786C205.499 0.421004 205.494 0.414418 205.49 0.407636C205.485 0.400854 205.48 0.394266 205.475 0.387581C205.47 0.380509 205.464 0.373434 205.459 0.366459C205.455 0.361614 205.451 0.356576 205.447 0.351829C205.442 0.345628 205.437 0.339815 205.432 0.333808C205.426 0.326832 205.419 0.319955 205.413 0.313173C205.407 0.306198 205.4 0.29961 205.394 0.292828C205.39 0.288953 205.387 0.284785 205.383 0.28091C205.383 0.280523 205.382 0.280233 205.382 0.279846C205.377 0.275292 205.372 0.270932 205.367 0.266378C205.36 0.259693 205.353 0.253104 205.346 0.246613C205.339 0.239831 205.331 0.233533 205.323 0.226945C205.317 0.222391 205.312 0.217257 205.307 0.2128C205.303 0.210087 205.3 0.207666 205.296 0.204953C205.289 0.199237 205.282 0.193424 205.274 0.187902C205.265 0.181604 205.256 0.175789 205.248 0.169686C205.24 0.164551 205.233 0.15903 205.225 0.154089C205.225 0.153798 205.225 0.153605 205.224 0.153314C205.222 0.151861 205.22 0.150795 205.217 0.149438C205.211 0.145272 205.204 0.140913 205.197 0.13694C205.188 0.131127 205.178 0.125894 205.168 0.120469C205.159 0.115528 205.15 0.110297 205.141 0.105647C205.138 0.104 205.134 0.102545 205.131 0.100898C205.126 0.0982825 205.121 0.0957655 205.115 0.0932465C205.105 0.0883054 205.094 0.0838475 205.084 0.079294C205.074 0.0751279 205.065 0.0706721 205.055 0.0668936C205.05 0.0650528 205.046 0.0634049 205.041 0.0617579C205.037 0.0601108 205.032 0.0587547 205.028 0.0572046C205.017 0.0533292 205.006 0.049939 204.996 0.0464511C204.986 0.0433508 204.976 0.0398622 204.967 0.0371494C204.961 0.0355024 204.956 0.0339518 204.95 0.0324986C204.946 0.0312391 204.941 0.0305596 204.936 0.029397C204.936 0.0293001 204.936 0.0293024 204.936 0.0293024C204.925 0.0266865 204.915 0.0243608 204.904 0.0221324C204.895 0.0200979 204.886 0.0177708 204.876 0.0160269C204.87 0.0148643 204.864 0.013702 204.858 0.0127331C204.856 0.0122487 204.852 0.0121532 204.849 0.0116687C204.846 0.0110874 204.842 0.0108929 204.839 0.0103116C204.834 0.00963342 204.829 0.00837314 204.824 0.00769495C204.819 0.00701676 204.814 0.0071136 204.809 0.0064354C204.8 0.00556344 204.792 0.00420718 204.784 0.00352899C204.778 0.00304456 204.773 0.00236722 204.767 0.00197969C204.759 0.00139838 204.751 0.00168787 204.743 0.00139722C204.732 0.000912797 204.722 0.000526584 204.711 0.000332815C204.704 0.00023593 204.697 4.30598e-05 204.69 4.30598e-05C204.685 4.30598e-05 204.68 -5.38247e-05 204.675 4.30598e-05C204.666 0.000236829 204.657 0.00139996 204.648 0.0017875C204.637 0.00236881 204.626 0.00294747 204.615 0.00391631C204.609 0.00449762 204.602 0.00498325 204.596 0.00575833C204.592 0.00614586 204.587 0.00633899 204.583 0.0069203C204.574 0.00808292 204.564 0.0101179 204.554 0.0115712C204.544 0.0132182 204.533 0.0146723 204.522 0.0167069C204.516 0.0178695 204.509 0.0191292 204.503 0.0204856C204.499 0.0212606 204.495 0.0219369 204.491 0.0227119C204.481 0.0248434 204.472 0.0278478 204.462 0.0303668C204.452 0.0328858 204.442 0.0351144 204.432 0.0379241C204.425 0.0399586 204.418 0.0419928 204.411 0.0441242C204.407 0.0454806 204.403 0.0466441 204.399 0.0480004C204.39 0.0511007 204.381 0.0548803 204.371 0.0581744C204.363 0.0613716 204.354 0.0641798 204.345 0.0675707C204.338 0.0703804 204.331 0.073189 204.324 0.0761924C204.318 0.0783239 204.313 0.0807467 204.308 0.082975C204.3 0.0867535 204.292 0.0911133 204.283 0.0950856C204.276 0.0986703 204.268 0.101966 204.261 0.105744C204.254 0.109329 204.247 0.112719 204.24 0.1164C204.233 0.119888 204.227 0.123667 204.221 0.127251C204.218 0.128608 204.216 0.129479 204.214 0.130932L127.82 44.5104C127.819 44.5107 127.818 44.5113 127.817 44.5117C127.796 44.5243 127.775 44.5382 127.755 44.5523C127.748 44.5568 127.741 44.5607 127.735 44.5654C127.734 44.5662 127.733 44.5671 127.732 44.5679C127.66 44.621 127.597 44.6829 127.544 44.7509C127.541 44.7543 127.538 44.7574 127.536 44.7609C127.522 44.7781 127.511 44.7963 127.499 44.8143C127.493 44.8228 127.487 44.8308 127.482 44.8396C127.473 44.8535 127.466 44.8681 127.458 44.8824C127.45 44.896 127.442 44.9092 127.436 44.9231C127.431 44.9334 127.427 44.9442 127.422 44.9548C127.414 44.9732 127.405 44.9914 127.398 45.0104C127.396 45.017 127.394 45.0239 127.392 45.0306C127.381 45.0625 127.371 45.0951 127.364 45.1284C127.359 45.1493 127.354 45.1702 127.35 45.1914C127.349 45.1975 127.349 45.2038 127.348 45.2098C127.344 45.2359 127.341 45.2622 127.339 45.2887C127.339 45.2896 127.339 45.2904 127.339 45.2911C127.339 45.2977 127.339 45.3042 127.339 45.3108C127.338 45.3356 127.337 45.3604 127.338 45.3852C127.339 45.3966 127.34 45.4077 127.341 45.4188C127.342 45.4392 127.344 45.4594 127.347 45.4797C127.349 45.494 127.352 45.508 127.354 45.5222C127.357 45.539 127.36 45.5556 127.364 45.5723C127.368 45.5893 127.373 45.6057 127.378 45.6224C127.382 45.6359 127.386 45.6494 127.39 45.6628C127.397 45.6825 127.405 45.7015 127.413 45.7206C127.417 45.7307 127.421 45.741 127.425 45.751C127.436 45.7738 127.448 45.7959 127.46 45.8178C127.463 45.8233 127.465 45.8291 127.469 45.8347C127.469 45.8352 127.469 45.8357 127.47 45.8363C127.49 45.8703 127.512 45.9026 127.536 45.9339C127.543 45.943 127.55 45.9516 127.557 45.9604C127.575 45.9819 127.593 46.0027 127.613 46.0226C127.621 46.0314 127.629 46.0405 127.638 46.0489C127.665 46.0741 127.692 46.098 127.721 46.1202C127.728 46.1249 127.734 46.1289 127.741 46.1336C127.765 46.1515 127.791 46.1682 127.818 46.1837C127.827 46.1893 127.837 46.1945 127.846 46.1997C127.873 46.214 127.9 46.227 127.928 46.2389C127.935 46.242 127.942 46.2455 127.95 46.2484C127.985 46.2626 128.022 46.2752 128.061 46.2852C128.061 46.2854 128.062 46.2855 128.062 46.2856C128.097 46.2947 128.134 46.3015 128.17 46.3066C128.182 46.3083 128.195 46.3093 128.207 46.3107C128.221 46.3121 128.235 46.3145 128.25 46.3153L158.194 48.0736L167.327 70.8826C167.327 70.8845 167.328 70.886 167.329 70.8878C167.331 70.892 167.332 70.8963 167.334 70.9005C167.34 70.9144 167.347 70.9276 167.353 70.941C167.36 70.956 167.367 70.9712 167.375 70.9858C167.379 70.9927 167.383 70.9992 167.387 71.006C167.392 71.0143 167.397 71.0223 167.402 71.0305C167.409 71.0426 167.416 71.0548 167.424 71.0665C167.425 71.0682 167.427 71.0698 167.428 71.0715C167.443 71.0938 167.459 71.1157 167.476 71.1368C167.477 71.137 167.477 71.1373 167.477 71.1376C167.504 71.1704 167.534 71.201 167.566 71.2303C167.573 71.2374 167.581 71.2444 167.589 71.2512C167.599 71.2607 167.61 71.2703 167.622 71.2794C167.644 71.2971 167.666 71.3141 167.69 71.33C167.691 71.3305 167.692 71.331 167.693 71.3316C167.719 71.3489 167.746 71.365 167.774 71.3798C167.775 71.38 167.775 71.3803 167.776 71.3806C167.778 71.3818 167.78 71.3825 167.783 71.3836C167.789 71.3867 167.795 71.3892 167.801 71.3921C167.809 71.3961 167.817 71.3999 167.825 71.4036C167.841 71.4108 167.857 71.4179 167.874 71.4243C167.886 71.429 167.898 71.433 167.91 71.4373C167.92 71.4408 167.93 71.4449 167.941 71.448C167.942 71.4485 167.944 71.4493 167.946 71.4499C167.955 71.4526 167.964 71.4544 167.974 71.4569C167.99 71.4612 168.006 71.4651 168.022 71.4686C168.029 71.4702 168.036 71.4726 168.044 71.4741C168.052 71.4756 168.06 71.4762 168.068 71.4776C168.077 71.479 168.086 71.4805 168.094 71.4818C168.104 71.4831 168.114 71.4845 168.124 71.4855C168.156 71.4888 168.187 71.4908 168.218 71.491C168.22 71.491 168.223 71.4914 168.225 71.4914H168.225C168.226 71.4914 168.226 71.4914 168.226 71.4914C168.228 71.4914 168.229 71.4912 168.231 71.4912C168.259 71.4911 168.287 71.4899 168.314 71.4874C168.321 71.4868 168.328 71.4854 168.334 71.4848C168.337 71.4844 168.341 71.4839 168.344 71.4835C168.351 71.4826 168.358 71.4817 168.365 71.4807C168.378 71.4788 168.39 71.4774 168.402 71.4751C168.41 71.4736 168.418 71.4715 168.426 71.4698C168.445 71.4659 168.464 71.4619 168.482 71.4569H168.482C168.485 71.4562 168.487 71.4553 168.489 71.4547C168.498 71.4522 168.507 71.4492 168.515 71.4465C168.535 71.4403 168.555 71.4336 168.574 71.4262C168.578 71.4247 168.582 71.4237 168.586 71.4221C168.59 71.4206 168.593 71.4187 168.597 71.4172C168.602 71.415 168.607 71.4127 168.613 71.4103C168.628 71.4037 168.643 71.3964 168.658 71.3889C168.668 71.3837 168.679 71.3785 168.689 71.3728C168.697 71.3684 168.705 71.364 168.713 71.3594C168.72 71.3553 168.727 71.3508 168.734 71.3465C168.734 71.3462 168.735 71.3458 168.736 71.3455C168.747 71.3387 168.758 71.3322 168.768 71.325C168.783 71.3154 168.796 71.3048 168.81 71.2946C168.812 71.2934 168.813 71.2924 168.814 71.2913C168.82 71.287 168.826 71.2831 168.832 71.2787C168.839 71.2729 168.846 71.2666 168.853 71.2606C168.87 71.2459 168.887 71.231 168.903 71.2152C168.908 71.2102 168.913 71.2049 168.918 71.1998C168.924 71.1937 168.93 71.1873 168.936 71.181C168.946 71.1705 168.955 71.1599 168.965 71.1488C168.972 71.1405 168.978 71.1318 168.985 71.1233C168.994 71.1122 169.003 71.1015 169.011 71.09C169.012 71.0894 169.012 71.0887 169.013 71.0881C169.015 71.0843 169.018 71.0803 169.02 71.0765C169.026 71.0684 169.031 71.0601 169.037 71.0519C169.048 71.0347 169.059 71.0172 169.069 70.9993C169.073 70.9924 169.077 70.9854 169.08 70.9784C169.082 70.9764 169.083 70.9746 169.084 70.9725L176.055 57.6797L194.613 74.842C194.615 74.8446 194.618 74.8467 194.621 74.8493C194.634 74.8606 194.647 74.8713 194.66 74.882C194.671 74.891 194.682 74.9002 194.694 74.9087C194.707 74.9182 194.72 74.927 194.733 74.936C194.746 74.9444 194.759 74.953 194.772 74.9609C194.784 74.9684 194.797 74.9753 194.81 74.9824C194.825 74.9903 194.839 74.9982 194.854 75.0052C194.867 75.0112 194.879 75.0164 194.892 75.0217C194.908 75.0286 194.924 75.0354 194.941 75.0414C194.953 75.0457 194.965 75.0496 194.978 75.0535C194.996 75.0592 195.014 75.0644 195.032 75.069C195.044 75.072 195.056 75.0747 195.068 75.0772C195.087 75.0814 195.106 75.0849 195.126 75.0878C195.133 75.0889 195.14 75.0906 195.147 75.0916C195.151 75.0921 195.155 75.0919 195.159 75.0923C195.196 75.0966 195.233 75.0995 195.27 75.0995C195.271 75.0995 195.271 75.0996 195.272 75.0996C195.304 75.0996 195.335 75.0978 195.367 75.0947C195.37 75.0944 195.373 75.0937 195.376 75.0934C195.404 75.0903 195.432 75.0861 195.459 75.0807C195.467 75.0791 195.476 75.0768 195.484 75.0749C195.506 75.07 195.527 75.0647 195.548 75.0584C195.56 75.055 195.571 75.0511 195.582 75.0473C195.6 75.0413 195.617 75.035 195.634 75.028C195.647 75.0228 195.66 75.0172 195.673 75.0114C195.688 75.0045 195.703 74.9972 195.717 74.9895C195.731 74.9827 195.744 74.9756 195.757 74.9679C195.771 74.9597 195.785 74.9507 195.799 74.9417C195.811 74.9337 195.823 74.9261 195.835 74.9175C195.855 74.9033 195.874 74.888 195.893 74.8724C195.899 74.8672 195.905 74.8623 195.911 74.857C195.934 74.8369 195.956 74.8156 195.977 74.7934C195.978 74.7915 195.98 74.7901 195.982 74.7883C195.987 74.7827 195.991 74.7766 195.996 74.7709C196.01 74.755 196.024 74.7388 196.037 74.722C196.044 74.7128 196.051 74.7033 196.058 74.6939C196.069 74.6784 196.08 74.6628 196.09 74.6466C196.097 74.6358 196.103 74.6249 196.109 74.6138C196.118 74.5987 196.127 74.5834 196.134 74.5677C196.141 74.5554 196.147 74.5432 196.152 74.5307C196.159 74.516 196.165 74.5009 196.171 74.4857C196.177 74.472 196.182 74.4584 196.187 74.4446C196.191 74.4303 196.196 74.4159 196.2 74.4013C196.204 74.3861 196.209 74.3709 196.212 74.3556C196.216 74.342 196.218 74.3281 196.221 74.3143C196.224 74.2979 196.227 74.2815 196.23 74.2649C196.23 74.2614 196.231 74.258 196.232 74.2544L205.662 1.09242C205.662 1.08709 205.662 1.08195 205.663 1.07662C205.664 1.068 205.665 1.05948 205.666 1.05076C205.666 1.04591 205.666 1.04097 205.667 1.03603ZM194.549 72.1442L172.954 52.1731L203.189 5.11283L194.549 72.1442ZM160.001 47.3732L198.932 8.15481L170.895 51.7929C170.894 51.7951 170.892 51.7974 170.891 51.7997L170.885 51.8092C170.883 51.8122 170.881 51.8154 170.879 51.8185C170.872 51.8298 170.866 51.8412 170.859 51.8527C170.852 51.8647 170.845 51.8765 170.839 51.8888C170.837 51.8937 170.834 51.8987 170.832 51.9037C170.826 51.9161 170.82 51.9287 170.814 51.9414C170.81 51.9522 170.805 51.963 170.8 51.9741C170.798 51.9804 170.795 51.9868 170.793 51.9931C170.788 52.0066 170.784 52.0203 170.779 52.0339C170.776 52.0436 170.773 52.053 170.77 52.0628C170.768 52.0702 170.765 52.0775 170.763 52.085C170.76 52.0994 170.757 52.114 170.754 52.1287C170.754 52.1291 170.753 52.1295 170.753 52.1298C170.752 52.1371 170.75 52.144 170.748 52.1513L170.746 52.1644C170.745 52.1662 170.745 52.1678 170.745 52.1696L167.895 67.0902L160.001 47.3732ZM158.485 46.1495L131.575 44.5695L198.848 5.48874L158.485 46.1495Z" fill="#398AC8"/>
</svg>
