<svg width="30" height="30" viewBox="0 0 30 30" fill="none" xmlns="http://www.w3.org/2000/svg">
<path fill-rule="evenodd" clip-rule="evenodd" d="M18.1497 11.9666L18.1513 11.9683L11.6663 19.1666L3.33301 9.99413V6.03747C3.33313 5.93564 3.36223 5.83595 3.41689 5.75004C3.47155 5.66413 3.54953 5.59554 3.64172 5.55229C3.7339 5.50903 3.83649 5.4929 3.9375 5.50577C4.03851 5.51864 4.13378 5.55998 4.21217 5.62497L13.458 13.3025C13.8912 13.6622 14.4366 13.8591 14.9997 13.8591C15.5628 13.8591 16.1081 13.6622 16.5413 13.3025L18.1497 11.9675V11.9666Z" fill="url(#paint0_linear_4603_1619)"/>
<path d="M21.6663 9.04771L18.1497 11.9677L18.1513 11.9685L13.4947 16.0819C13.1108 16.4207 12.6185 16.6112 12.1065 16.6188C11.5946 16.6265 11.0968 16.4508 10.703 16.1235L3.33301 9.99437V21.7527C3.3329 22.0698 3.39527 22.3837 3.51655 22.6767C3.63784 22.9696 3.81566 23.2358 4.03986 23.46C4.26405 23.6842 4.53023 23.862 4.82318 23.9833C5.11613 24.1046 5.43011 24.167 5.74717 24.1669H21.6663L23.333 16.6069L21.6663 9.04688V9.04771Z" fill="url(#paint1_radial_4603_1619)"/>
<path fill-rule="evenodd" clip-rule="evenodd" d="M21.667 9.04997V24.1666H24.2528C25.5862 24.1666 26.667 23.0858 26.667 21.7533V6.03664C26.6667 5.93488 26.6375 5.8353 26.5828 5.74951C26.528 5.66372 26.4501 5.59526 26.3579 5.55211C26.2658 5.50896 26.1632 5.49289 26.0623 5.5058C25.9614 5.5187 25.8662 5.56003 25.7878 5.62497L21.667 9.04997Z" fill="url(#paint2_linear_4603_1619)"/>
<defs>
<linearGradient id="paint0_linear_4603_1619" x1="12.0888" y1="19.2933" x2="4.26301" y2="-7.89086" gradientUnits="userSpaceOnUse">
<stop stop-color="#E3D9FF"/>
<stop offset="1" stop-color="#7341FF"/>
</linearGradient>
<radialGradient id="paint1_radial_4603_1619" cx="0" cy="0" r="1" gradientUnits="userSpaceOnUse" gradientTransform="translate(23.2455 10.8977) scale(23.3235 21.9842)">
<stop offset="0.556" stop-color="#6D4AFF"/>
<stop offset="0.994" stop-color="#AA8EFF"/>
</radialGradient>
<linearGradient id="paint2_linear_4603_1619" x1="34.2128" y1="36.2683" x2="16.2128" y2="-2.56253" gradientUnits="userSpaceOnUse">
<stop offset="0.271" stop-color="#E3D9FF"/>
<stop offset="1" stop-color="#7341FF"/>
</linearGradient>
</defs>
</svg>
