<svg width="30" height="30" viewBox="0 0 30 30" fill="none" xmlns="http://www.w3.org/2000/svg">
<path d="M5.83301 5C5.16997 5 4.53408 5.26339 4.06524 5.73223C3.5964 6.20107 3.33301 6.83696 3.33301 7.5V8.33333L4.16634 9.16667V23.3333L20.833 15L21.6663 15.8333H26.6663V7.5C26.6663 6.83696 26.403 6.20107 25.9341 5.73223C25.4653 5.26339 24.8294 5 24.1663 5H5.83301Z" fill="url(#paint0_linear_4603_1623)"/>
<path d="M19.7022 8.3335H3.33301V21.766C3.3329 22.0813 3.39492 22.3936 3.51554 22.6849C3.63615 22.9762 3.81299 23.2409 4.03595 23.4639C4.25891 23.6868 4.52362 23.8637 4.81495 23.9843C5.10628 24.1049 5.41853 24.1669 5.73384 24.1668H14.1663L18.5422 17.6027C18.7555 17.0796 19.1198 16.6319 19.5887 16.3168C20.0576 16.0017 20.6097 15.8334 21.1747 15.8335H21.6663V10.2977C21.6663 9.77673 21.4594 9.27714 21.0911 8.90879C20.7227 8.54043 20.2231 8.3335 19.7022 8.3335Z" fill="url(#paint1_radial_4603_1623)"/>
<path d="M14.167 24.1666V23.2707C14.167 22.7734 14.345 22.2925 14.6687 21.9149L18.8795 17.0007C18.9665 16.8812 19.0626 16.7687 19.167 16.6641L18.8795 17.0007C18.524 17.4865 18.3328 18.073 18.3337 18.6749V24.1666H14.167Z" fill="#B8D7FF"/>
<path d="M20.5 21.155H21.35C21.3867 21.3023 21.4733 21.4324 21.5952 21.523C21.7171 21.6136 21.8667 21.659 22.0183 21.6516C22.4033 21.6508 22.6567 21.4408 22.6567 21.1325C22.6567 20.8241 22.3933 20.6533 21.8708 20.6533H21.5333V19.9591H21.8267C22.3317 19.9591 22.5383 19.7733 22.5383 19.4966C22.5383 19.2208 22.3142 19.03 22.0033 19.03C21.8652 19.0219 21.7293 19.0675 21.6242 19.1575C21.5192 19.247 21.4537 19.3742 21.4417 19.5116H20.6208C20.65 19.0283 21.035 18.3333 21.9992 18.3333C22.7725 18.3333 23.3075 18.7708 23.3075 19.3866C23.3085 19.5846 23.2453 19.7776 23.1275 19.9366C23.0092 20.0958 22.8442 20.2158 22.655 20.2741V20.2866C22.8754 20.3256 23.0743 20.4427 23.2154 20.6164C23.3566 20.7901 23.4304 21.0088 23.4233 21.2325C23.4233 21.9 22.8067 22.3408 22.0108 22.3408C21.1658 22.345 20.5608 21.8691 20.5 21.155ZM24.91 18.4H25.5292V22.2841H24.73V19.3041L23.9608 19.8225V19.0375L24.91 18.4Z" fill="#8F69FF"/>
<defs>
<linearGradient id="paint0_linear_4603_1623" x1="22.9355" y1="17.53" x2="9.32551" y2="-2.24333" gradientUnits="userSpaceOnUse">
<stop stop-color="#BFE8FF"/>
<stop offset="0.307" stop-color="#BFABFF"/>
<stop offset="1" stop-color="#7341FF"/>
</linearGradient>
<radialGradient id="paint1_radial_4603_1623" cx="0" cy="0" r="1" gradientUnits="userSpaceOnUse" gradientTransform="translate(20.9655 -4.87567) scale(37.4319 33.4507)">
<stop offset="0.503" stop-color="#6D4AFF"/>
<stop offset="0.994" stop-color="#06B8FF"/>
</radialGradient>
</defs>
</svg>
