<svg width="30" height="30" viewBox="0 0 30 30" fill="none" xmlns="http://www.w3.org/2000/svg">
<path d="M3.33301 7.50016L6.66634 5.8335L12.4997 9.16683H22.4997V23.3335L21.6663 24.1668H5.83301C5.16997 24.1668 4.53408 23.9034 4.06524 23.4346C3.5964 22.9658 3.33301 22.3299 3.33301 21.6668V7.50016Z" fill="url(#paint0_radial_4603_1628)"/>
<path fill-rule="evenodd" clip-rule="evenodd" d="M12.4672 6.18833C12.8946 6.49924 13.4095 6.6667 13.938 6.66667H24.1663C24.8294 6.66667 25.4653 6.93006 25.9341 7.3989C26.403 7.86774 26.6663 8.50363 26.6663 9.16667V21.6667C26.6663 22.3297 26.403 22.9656 25.9341 23.4344C25.4653 23.9033 24.8294 24.1667 24.1663 24.1667H21.6663V12.0833C21.6663 11.5308 21.4468 11.0009 21.0561 10.6102C20.6654 10.2195 20.1355 10 19.583 10H10.833C10.2921 10 9.76575 9.82456 9.33301 9.5L7.33301 8C6.90027 7.67545 6.37393 7.5 5.83301 7.5H3.33301C3.33301 6.83696 3.5964 6.20107 4.06524 5.73223C4.53408 5.26339 5.16997 5 5.83301 5H10.0197C10.5482 4.99997 11.0631 5.16743 11.4905 5.47833L12.4672 6.18833Z" fill="url(#paint1_linear_4603_1628)"/>
<defs>
<radialGradient id="paint0_radial_4603_1628" cx="0" cy="0" r="1" gradientUnits="userSpaceOnUse" gradientTransform="translate(24.1047 -6.7615) scale(35.7647 37.9599)">
<stop offset="0.556" stop-color="#6D4AFF"/>
<stop offset="1" stop-color="#FF50C3"/>
</radialGradient>
<linearGradient id="paint1_linear_4603_1628" x1="3.02551" y1="-5.0025" x2="31.9538" y2="27.0258" gradientUnits="userSpaceOnUse">
<stop stop-color="#7341FF"/>
<stop offset="0.359" stop-color="#B487FF"/>
<stop offset="1" stop-color="#FFC8FF"/>
</linearGradient>
</defs>
</svg>
