<svg width="30" height="30" viewBox="0 0 30 30" fill="none" xmlns="http://www.w3.org/2000/svg">
<path d="M10.3497 6.28315C11.9747 4.64982 12.7913 3.84148 13.733 3.53315C14.5564 3.26629 15.443 3.26629 16.2663 3.53315C17.208 3.84148 18.0163 4.64982 19.6497 6.28315L23.7163 10.3498C25.3497 11.9748 26.158 12.7915 26.4663 13.7332C26.733 14.5582 26.733 15.4415 26.4663 16.2665C26.158 17.2082 25.3497 18.0165 23.7163 19.6498L19.6497 23.7165C18.0247 25.3498 17.208 26.1582 16.2663 26.4665C15.4413 26.7332 14.558 26.7332 13.733 26.4665C12.7913 26.1582 11.983 25.3498 10.3497 23.7165L9.58301 22.8582C9.26047 22.5335 8.97279 22.176 8.72467 21.7915C8.57931 21.5305 8.47264 21.2498 8.40801 20.9582C8.33301 20.6248 8.33301 20.2748 8.33301 19.5748V10.4248C8.33301 9.72482 8.33301 9.37482 8.40801 9.04982C8.47467 8.75815 8.57467 8.46648 8.72467 8.21648C8.89134 7.91648 9.12467 7.65815 9.58301 7.13315L10.3497 6.28315Z" fill="url(#paint0_radial_4603_1634)"/>
<path d="M10.3497 6.28315C11.9747 4.64982 12.7913 3.84148 13.733 3.53315C14.5564 3.26629 15.443 3.26629 16.2663 3.53315C17.208 3.84148 18.0163 4.64982 19.6497 6.28315L23.7163 10.3498C25.3497 11.9748 26.158 12.7915 26.4663 13.7332C26.733 14.5582 26.733 15.4415 26.4663 16.2665C26.158 17.2082 25.3497 18.0165 23.7163 19.6498L19.6497 23.7165C18.0247 25.3498 17.208 26.1582 16.2663 26.4665C15.4413 26.7332 14.558 26.7332 13.733 26.4665C12.7913 26.1582 11.983 25.3498 10.3497 23.7165L9.58301 22.8582C9.26047 22.5335 8.97279 22.176 8.72467 21.7915C8.57931 21.5305 8.47264 21.2498 8.40801 20.9582C8.33301 20.6248 8.33301 20.2748 8.33301 19.5748V10.4248C8.33301 9.72482 8.33301 9.37482 8.40801 9.04982C8.47467 8.75815 8.57467 8.46648 8.72467 8.21648C8.89134 7.91648 9.12467 7.65815 9.58301 7.13315L10.3497 6.28315Z" fill="url(#paint1_linear_4603_1634)"/>
<path d="M10.0584 6.57498C10.8751 5.75831 11.2834 5.34998 11.7501 5.19998C12.1667 5.06664 12.6084 5.06664 13.0167 5.19998C13.4917 5.34998 13.8917 5.75831 14.7084 6.57498L20.8167 12.675C21.6251 13.4916 22.0334 13.8916 22.1834 14.3666C22.3167 14.7833 22.3167 15.225 22.1834 15.6333C22.0334 16.1 21.6251 16.5083 20.8167 17.325L14.7084 23.425C13.8917 24.2416 13.4917 24.65 13.0167 24.8C12.6001 24.9333 12.1584 24.9333 11.7501 24.8C11.2834 24.65 10.8751 24.2416 10.0584 23.425L6.28339 19.65C4.65006 18.025 3.84173 17.2083 3.53339 16.2666C3.26654 15.4433 3.26654 14.5567 3.53339 13.7333C3.84173 12.7916 4.65006 11.9833 6.28339 10.35L10.0584 6.57498Z" fill="url(#paint2_radial_4603_1634)"/>
<defs>
<radialGradient id="paint0_radial_4603_1634" cx="0" cy="0" r="1" gradientUnits="userSpaceOnUse" gradientTransform="translate(10.372 27.1249) rotate(-58.14) scale(19.4776 30.459)">
<stop stop-color="#FFD580"/>
<stop offset="0.09" stop-color="#F6C592"/>
<stop offset="0.2" stop-color="#EBB6A2"/>
<stop offset="0.32" stop-color="#DFA5AF"/>
<stop offset="0.43" stop-color="#D397BE"/>
<stop offset="0.53" stop-color="#C486CB"/>
<stop offset="0.65" stop-color="#B578D9"/>
<stop offset="0.77" stop-color="#A166E5"/>
<stop offset="0.89" stop-color="#8B57F2"/>
<stop offset="1" stop-color="#704CFF"/>
</radialGradient>
<linearGradient id="paint1_linear_4603_1634" x1="9.57468" y1="-1.30018" x2="14.108" y2="26.3998" gradientUnits="userSpaceOnUse">
<stop stop-color="#6D4AFF"/>
<stop offset="0.39" stop-color="#B39FFB" stop-opacity="0.98"/>
<stop offset="1" stop-color="#FFE8DB" stop-opacity="0.8"/>
</linearGradient>
<radialGradient id="paint2_radial_4603_1634" cx="0" cy="0" r="1" gradientUnits="userSpaceOnUse" gradientTransform="translate(8.66673 24.75) rotate(-58.142) scale(15.6668 24.4997)">
<stop stop-color="#FFD580"/>
<stop offset="0.09" stop-color="#F6C592"/>
<stop offset="0.2" stop-color="#EBB6A2"/>
<stop offset="0.32" stop-color="#DFA5AF"/>
<stop offset="0.43" stop-color="#D397BE"/>
<stop offset="0.53" stop-color="#C486CB"/>
<stop offset="0.65" stop-color="#B578D9"/>
<stop offset="0.77" stop-color="#A166E5"/>
<stop offset="0.89" stop-color="#8B57F2"/>
<stop offset="1" stop-color="#704CFF"/>
</radialGradient>
</defs>
</svg>
