<svg width="30" height="30" viewBox="0 0 30 30" fill="none" xmlns="http://www.w3.org/2000/svg">
<path d="M3.33691 22.6069C3.33691 23.9666 4.4392 25.0689 5.79892 25.0689H24.2049C25.5646 25.0689 26.6669 23.9666 26.6669 22.6069V14.7284C26.6669 9.28952 22.2578 4.88037 16.8189 4.88037H5.79892C4.43919 4.88037 3.33691 5.98265 3.33691 7.34239V15.0994H8.20033C9.95411 15.0994 11.3762 16.6187 11.3762 18.4925C11.3762 20.3663 9.95411 21.8857 8.20033 21.8857H3.33691V22.6069Z" fill="url(#paint0_linear_4603_1638)"/>
<path d="M7.95489 16.6982C8.95201 16.6982 9.76035 17.5066 9.76035 18.5037C9.76035 19.5008 8.95201 20.3092 7.95489 20.3092C6.95776 20.3092 6.14941 19.5008 6.14941 18.5037C6.14941 17.5066 6.95776 16.6982 7.95489 16.6982Z" fill="url(#paint1_linear_4603_1638)"/>
<path d="M3.33301 22.6577C3.33301 24.0174 4.43529 25.1197 5.79502 25.1197H21.7422V15.5999C21.7422 11.5207 18.4354 8.21387 14.3562 8.21387H3.33301V15.0995H8.19968C9.95346 15.0995 11.3755 16.6189 11.3755 18.4927C11.3755 20.3664 9.95346 21.8859 8.19968 21.8859H3.33301V22.6577Z" fill="#6D4AFF"/>
<path d="M3.33301 22.6577C3.33301 24.0174 4.43529 25.1197 5.79502 25.1197H21.7422V15.5999C21.7422 11.5207 18.4354 8.21387 14.3562 8.21387H3.33301V15.0995H8.19968C9.95346 15.0995 11.3755 16.6189 11.3755 18.4927C11.3755 20.3664 9.95346 21.8859 8.19968 21.8859H3.33301V22.6577Z" fill="url(#paint2_linear_4603_1638)" fill-opacity="0.9"/>
<path d="M7.95489 16.6982C8.95201 16.6982 9.76035 17.5066 9.76035 18.5037C9.76035 19.5008 8.95201 20.3092 7.95489 20.3092C6.95776 20.3092 6.14941 19.5008 6.14941 18.5037C6.14941 17.5066 6.95776 16.6982 7.95489 16.6982Z" fill="#6D4AFF"/>
<path d="M7.95489 16.6982C8.95201 16.6982 9.76035 17.5066 9.76035 18.5037C9.76035 19.5008 8.95201 20.3092 7.95489 20.3092C6.95776 20.3092 6.14941 19.5008 6.14941 18.5037C6.14941 17.5066 6.95776 16.6982 7.95489 16.6982Z" fill="url(#paint3_linear_4603_1638)" fill-opacity="0.9"/>
<path d="M10.5202 20.8089C9.94062 21.4714 9.11537 21.8856 8.19968 21.8856H3.33301V22.6067C3.33301 23.9664 4.43529 25.0688 5.79502 25.0688H6.82467L10.5811 20.8013L10.5202 20.8089Z" fill="#FFBB93"/>
<defs>
<linearGradient id="paint0_linear_4603_1638" x1="0.405437" y1="7.2299" x2="29.2699" y2="18.4738" gradientUnits="userSpaceOnUse">
<stop stop-color="#957AFD"/>
<stop offset="1" stop-color="#FFC6C6"/>
</linearGradient>
<linearGradient id="paint1_linear_4603_1638" x1="0.404679" y1="7.23013" x2="29.2691" y2="18.474" gradientUnits="userSpaceOnUse">
<stop stop-color="#957AFD"/>
<stop offset="1" stop-color="#FFC6C6"/>
</linearGradient>
<linearGradient id="paint2_linear_4603_1638" x1="20.7019" y1="10.8094" x2="11.7489" y2="29.027" gradientUnits="userSpaceOnUse">
<stop offset="0.149916" stop-color="#FA528E" stop-opacity="0"/>
<stop offset="0.720842" stop-color="#FF8065"/>
<stop offset="1" stop-color="#FFA51F"/>
</linearGradient>
<linearGradient id="paint3_linear_4603_1638" x1="20.7018" y1="10.8094" x2="11.7488" y2="29.0271" gradientUnits="userSpaceOnUse">
<stop offset="0.149916" stop-color="#FA528E" stop-opacity="0"/>
<stop offset="0.720842" stop-color="#FF8065"/>
<stop offset="1" stop-color="#FFA51F"/>
</linearGradient>
</defs>
</svg>
