<svg width="18" height="21" viewBox="0 0 18 21" fill="none" xmlns="http://www.w3.org/2000/svg">
<path d="M14.6041 19.9731C13.4765 21.0674 12.2324 20.8968 11.0465 20.3808C9.78577 19.8545 8.6332 19.8212 7.3017 20.3808C5.64357 21.0965 4.76353 20.8885 3.76491 19.9731C-1.87314 14.1686 -1.04096 5.32665 5.36687 4.99378C6.92097 5.07699 8.00906 5.853 8.92446 5.9175C10.2851 5.6408 11.5875 4.84814 13.0438 4.95217C14.7934 5.09364 16.1021 5.78435 16.9759 7.02638C13.3767 9.19006 14.2296 13.9335 17.5355 15.265C16.8739 17.0022 16.0251 18.7186 14.602 19.9876L14.6041 19.9731ZM8.79963 4.93136C8.63112 2.3516 10.722 0.22953 13.127 0.0214844C13.4578 2.99654 10.4224 5.22263 8.79963 4.93136Z" fill="#192126"/>
</svg>
