<svg width="22" height="27" viewBox="0 0 22 27" fill="none" xmlns="http://www.w3.org/2000/svg">
<path d="M21.6761 0.753357V22.0932L2.65378 24.1691L0.32373 24.4233V3.0834C0.32373 2.43995 0.584238 1.85719 1.00593 1.4355C1.42761 1.01381 2.01033 0.753357 2.65378 0.753357H21.6761Z" fill="#277FC0"/>
<path d="M2.65378 0.753357V24.1691L0.32373 24.4233V3.0834C0.32373 2.43995 0.584238 1.85719 1.00593 1.4355C1.42761 1.01381 2.01033 0.753357 2.65378 0.753357Z" fill="#333333"/>
<path d="M21.6763 22.0934H2.65368C1.36688 22.0934 0.32373 23.1366 0.32373 24.4234C0.32373 25.7102 1.36688 26.7533 2.65368 26.7533H21.6763V25.4455L20.7283 24.4233L21.6763 23.4012V22.0934Z" fill="#333333"/>
<path d="M2.65372 25.4455C2.0901 25.4455 1.63159 24.987 1.63159 24.4234C1.63159 23.8597 2.0901 23.4012 2.65372 23.4012H21.6763V25.4455H2.65372Z" fill="#DFEAEF"/>
<path d="M8.71379 5.80513L7.01998 4.06668L5.32617 5.80513V0.753357H8.71379V5.80513Z" fill="#F2F2F2"/>
<path d="M16.0993 7.26562H7.06666C6.16102 7.26562 5.42688 7.99977 5.42688 8.9054V13.9089C5.42688 14.8146 6.16102 15.5487 7.06666 15.5487H16.0993C17.005 15.5487 17.7391 14.8146 17.7391 13.9089V8.9054C17.7391 7.99977 17.005 7.26562 16.0993 7.26562Z" fill="#DFEAEF"/>
<path d="M16.0994 15.9411H7.06671C5.94617 15.9411 5.03455 15.0295 5.03455 13.9089V8.9054C5.03455 7.78492 5.94617 6.87329 7.06671 6.87329H16.0994C17.2199 6.87329 18.1315 7.78492 18.1315 8.9054V13.9089C18.1315 15.0295 17.2199 15.9411 16.0994 15.9411ZM7.06671 7.65801C6.37888 7.65801 5.81927 8.21762 5.81927 8.9054V13.9089C5.81927 14.5968 6.37888 15.1564 7.06671 15.1564H16.0994C16.7872 15.1564 17.3468 14.5968 17.3468 13.9089V8.9054C17.3468 8.21757 16.7872 7.65801 16.0994 7.65801H7.06671Z" fill="#333333"/>
<path d="M15.2682 10.7601H7.89771C7.79365 10.7601 7.69386 10.7188 7.62028 10.6452C7.54671 10.5716 7.50537 10.4719 7.50537 10.3678C7.50537 10.2637 7.54671 10.164 7.62028 10.0904C7.69386 10.0168 7.79365 9.97546 7.89771 9.97546H15.2681C15.3722 9.97546 15.472 10.0168 15.5456 10.0904C15.6191 10.164 15.6605 10.2637 15.6605 10.3678C15.6605 10.4193 15.6504 10.4703 15.6307 10.5179C15.6109 10.5655 15.582 10.6088 15.5456 10.6452C15.5092 10.6817 15.4659 10.7106 15.4183 10.7303C15.3707 10.75 15.3197 10.7601 15.2682 10.7601ZM15.2682 12.8389H7.89771C7.79365 12.8389 7.69386 12.7976 7.62028 12.724C7.54671 12.6504 7.50537 12.5506 7.50537 12.4466C7.50537 12.3425 7.54671 12.2427 7.62028 12.1692C7.69386 12.0956 7.79365 12.0542 7.89771 12.0542H15.2681C15.3722 12.0542 15.472 12.0956 15.5456 12.1691C15.6192 12.2427 15.6605 12.3425 15.6605 12.4466C15.6605 12.5506 15.6192 12.6504 15.5456 12.724C15.472 12.7976 15.3723 12.8389 15.2682 12.8389Z" fill="#665E66"/>
</svg>
