<svg width="20" height="20" viewBox="0 0 20 20" fill="none" xmlns="http://www.w3.org/2000/svg">
<path d="M9.99963 18.9584C14.9395 18.9584 18.9584 14.9402 18.9586 10.0004C18.9586 5.06058 14.9403 1.04173 10.0006 1.04138C5.06061 1.04138 1.04163 5.06037 1.04163 10.0004C1.0418 14.9401 5.05989 18.9582 9.99963 18.9584ZM2.95569 6.87537C3.97025 4.59737 6.05706 2.9004 8.5719 2.42712C7.87145 3.40152 6.96828 4.92864 6.45276 6.87537L2.95569 6.87537ZM13.5475 6.87537C13.0318 4.92834 12.1279 3.40148 11.4274 2.42712C13.9424 2.90022 16.0289 4.5973 17.0436 6.87537H13.5475ZM7.75842 6.87537C8.36248 4.85672 9.40731 3.35595 9.99963 2.61853C10.5919 3.35647 11.6368 4.85708 12.2408 6.87537L7.75842 6.87537ZM13.8121 11.8754C13.9058 11.2802 13.9596 10.6536 13.9596 9.99939C13.9596 9.34578 13.9057 8.72011 13.8121 8.12537H17.4772C17.6278 8.72573 17.7086 9.35399 17.7086 10.0004C17.7086 10.6468 17.6279 11.2749 17.4772 11.8754H13.8121ZM7.45959 11.8754C7.3536 11.2824 7.29163 10.6553 7.29163 9.99939C7.29165 9.34408 7.35374 8.71791 7.45959 8.12537L12.5406 8.12537C12.6465 8.71787 12.7086 9.34407 12.7086 9.99939C12.7086 10.6552 12.6466 11.2824 12.5406 11.8754L7.45959 11.8754ZM2.52307 11.8754C2.37238 11.2749 2.29165 10.6469 2.29163 10.0004C2.29163 9.35396 2.37245 8.72576 2.52307 8.12537L6.18909 8.12537C6.09557 8.72013 6.04165 9.34575 6.04163 9.99939C6.04163 10.6536 6.09543 11.2802 6.18909 11.8754H2.52307ZM8.57288 17.5736C6.0579 17.1007 3.97152 15.4032 2.95667 13.1254H6.45276C6.96862 15.0723 7.87245 16.5994 8.57288 17.5736ZM9.99963 17.3802C9.40737 16.6423 8.36242 15.1429 7.75842 13.1254L12.2408 13.1254C11.6368 15.1433 10.5919 16.6429 9.99963 17.3802ZM11.4283 17.5736C12.1288 16.5994 13.0327 15.0723 13.5485 13.1254H17.0436C16.0289 15.4029 13.9428 17.1003 11.4283 17.5736Z" fill="#103358"/>
</svg>
