<svg width="20" height="20" viewBox="0 0 20 20" fill="none" xmlns="http://www.w3.org/2000/svg">
<g clip-path="url(#clip0_4605_714)">
<path d="M19.8052 10.2303C19.8052 9.55056 19.7501 8.86711 19.6325 8.19836H10.2002V12.0492H15.6016C15.3775 13.2911 14.6573 14.3898 13.6027 15.0879V17.5866H16.8252C18.7176 15.8449 19.8052 13.2728 19.8052 10.2303Z" fill="#4285F4"/>
<path d="M9.93625 20.0007C12.6333 20.0007 14.9078 19.1152 16.5649 17.5866L13.3425 15.088C12.4459 15.6979 11.2884 16.0433 9.93993 16.0433C7.33107 16.0433 5.11905 14.2833 4.32537 11.9169H1V14.4927C2.69759 17.8695 6.15525 20.0007 9.93625 20.0007Z" fill="#34A853"/>
<path d="M4.58564 11.9169C4.16676 10.6749 4.16676 9.33008 4.58564 8.08811V5.51233H1.26395C-0.154389 8.33798 -0.154389 11.667 1.26395 14.4927L4.58564 11.9169Z" fill="#FBBC04"/>
<path d="M10.2 3.95805C11.6257 3.936 13.0036 4.47247 14.0362 5.45722L16.8912 2.60218C15.0834 0.904587 12.684 -0.0287217 10.2 0.000673888C6.41904 0.000673888 2.96139 2.13185 1.26379 5.51234L4.58549 8.08813C5.3755 5.71811 7.59119 3.95805 10.2 3.95805Z" fill="#EA4335"/>
</g>
<defs>
<clipPath id="clip0_4605_714">
<rect width="20" height="20" fill="white"/>
</clipPath>
</defs>
</svg>
