<svg width="9" height="8" viewBox="0 0 9 8" fill="none" xmlns="http://www.w3.org/2000/svg">
<path d="M4.16078 7.1188H4.15732C4.13499 7.11834 4.11298 7.11338 4.09262 7.1042C4.07226 7.09502 4.05396 7.08182 4.03883 7.06539L0.913258 3.66674C0.887264 3.63848 0.87189 3.60208 0.869762 3.56374C0.867634 3.5254 0.878885 3.48752 0.901592 3.45656C0.924306 3.42561 0.957055 3.40349 0.994253 3.39398C1.03145 3.38447 1.07079 3.38816 1.10558 3.40442L3.96628 4.7439C3.99034 4.7552 4.01878 4.74974 4.03719 4.7306L8.40089 0.169839C8.45995 0.108042 8.55656 0.101298 8.62365 0.154527C8.69073 0.207756 8.70623 0.303277 8.65938 0.374918L4.31865 7.02455C4.31245 7.03421 4.30516 7.04296 4.29714 7.05117L4.278 7.07031C4.24685 7.10129 4.20472 7.11872 4.16078 7.1188Z" fill="#103358"/>
</svg>
