<svg width="18" height="24" viewBox="0 0 18 24" fill="none" xmlns="http://www.w3.org/2000/svg">
<path d="M9 5.45455V8.72727L13.5 4.36364L9 0V3.27273C6.61305 3.27273 4.32387 4.19221 2.63604 5.82889C0.948212 7.46557 0 9.68538 0 12C0 13.7127 0.5175 15.3055 1.395 16.6473L3.0375 15.0545C2.51827 14.1153 2.24767 13.0657 2.25 12C2.25 10.264 2.96116 8.59918 4.22703 7.37167C5.4929 6.14415 7.20979 5.45455 9 5.45455ZM16.605 7.35273L14.9625 8.94545C15.4575 9.86182 15.75 10.9091 15.75 12C15.75 13.736 15.0388 15.4008 13.773 16.6283C12.5071 17.8558 10.7902 18.5455 9 18.5455V15.2727L4.5 19.6364L9 24V20.7273C11.3869 20.7273 13.6761 19.8078 15.364 18.1711C17.0518 16.5344 18 14.3146 18 12C18 10.2873 17.4825 8.69455 16.605 7.35273Z" fill="#103358"/>
</svg>
