<svg width="37" height="18" viewBox="0 0 37 18" fill="none" xmlns="http://www.w3.org/2000/svg">
<path d="M36.5761 7.97248L36.5748 7.9711L29.0227 0.422705C28.457 -0.142771 27.5418 -0.140667 26.9787 0.42764C26.4156 0.995874 26.4178 1.91496 26.9835 2.48051L32.054 7.54839H1.44531C0.647067 7.54839 0 8.19827 0 9C0 9.80173 0.647067 10.4516 1.44531 10.4516H32.054L26.9837 15.5195C26.4179 16.085 26.4157 17.0041 26.9788 17.5724C27.542 18.1407 28.4572 18.1427 29.0229 17.5773L36.5749 10.0289L36.5762 10.0275C37.1422 9.46009 37.1404 8.53802 36.5761 7.97248Z" fill="#103358"/>
</svg>
