<svg width="27" height="32" viewBox="0 0 27 32" fill="none" xmlns="http://www.w3.org/2000/svg">
                                                                <g clip-path="url(#clip0_4721_23691)">
                                                                    <path d="M26.35 25.4679C26.0872 25.8433 25.7583 26.1454 25.3865 26.3528C25.0148 26.5602 24.6092 26.6678 24.1987 26.6679H2.90917C2.49858 26.6678 2.09304 26.5602 1.72127 26.3528C1.3495 26.1454 1.02059 25.8433 0.757812 25.4679L11.0328 15.2812L12.0973 16.1479C12.9742 16.8679 14.1337 16.8679 15.0106 16.1479L16.0751 15.2812L26.35 25.4679Z" fill="#1E88E5" />
                                                                    <path d="M26.5074 6.78936L16.0756 15.2827L15.0111 16.1494C14.1342 16.8694 12.9747 16.8694 12.0978 16.1494L11.0333 15.2827L0.601562 6.77598C0.86018 6.33223 1.20517 5.9695 1.60711 5.71875C2.00904 5.46801 2.45598 5.33668 2.9098 5.33598H24.1992C24.6548 5.33312 25.104 5.4643 25.5067 5.71787C25.9094 5.97143 26.2531 6.33951 26.5074 6.78936Z" fill="#64B5F6" />
                                                                    <path d="M11.0323 15.284L0.757341 25.4706C0.336775 24.8725 0.106691 24.1172 0.107471 23.3373V8.67065C0.104076 7.9942 0.276261 7.33299 0.600506 6.77734L11.0323 15.284ZM26.9993 8.67065V23.3373C27.0001 24.1172 26.77 24.8725 26.3495 25.4706L16.0745 15.284L26.5063 6.79066C26.8289 7.34226 27.001 7.99863 26.9993 8.67065Z" fill="#2196F3" />
                                                                </g>
                                                                <defs>
                                                                    <clipPath id="clip0_4721_23691">
                                                                        <rect width="26.8919" height="32" fill="white" transform="translate(0.107422)" />
                                                                    </clipPath>
                                                                </defs>
                                                            </svg>