<svg width="20" height="20" viewBox="0 0 20 20" fill="none" xmlns="http://www.w3.org/2000/svg">
<g clip-path="url(#clip0_4646_7308)">
<path d="M19.8042 10.2302C19.8042 9.55044 19.7491 8.86699 19.6315 8.19824H10.1992V12.0491H15.6007C15.3765 13.291 14.6563 14.3897 13.6018 15.0878V17.5864H16.8243C18.7166 15.8448 19.8042 13.2726 19.8042 10.2302Z" fill="#4285F4"/>
<path d="M9.93625 20.0008C12.6333 20.0008 14.9078 19.1152 16.5649 17.5867L13.3425 15.088C12.4459 15.698 11.2884 16.0434 9.93993 16.0434C7.33107 16.0434 5.11905 14.2833 4.32537 11.917H1V14.4928C2.69759 17.8696 6.15525 20.0008 9.93625 20.0008Z" fill="#34A853"/>
<path d="M4.58467 11.9168C4.16578 10.6748 4.16578 9.32995 4.58467 8.08799V5.51221H1.26297C-0.155365 8.33785 -0.155365 11.6669 1.26297 14.4925L4.58467 11.9168Z" fill="#FBBC04"/>
<path d="M10.1999 3.95805C11.6256 3.936 13.0035 4.47247 14.036 5.45722L16.8911 2.60218C15.0833 0.904587 12.6838 -0.0287217 10.1999 0.000673888C6.41892 0.000673888 2.96127 2.13185 1.26367 5.51234L4.58537 8.08813C5.37538 5.71811 7.59107 3.95805 10.1999 3.95805Z" fill="#EA4335"/>
</g>
<defs>
<clipPath id="clip0_4646_7308">
<rect width="20" height="20" fill="white"/>
</clipPath>
</defs>
</svg>
