<svg width="20" height="20" viewBox="0 0 20 20" fill="none" xmlns="http://www.w3.org/2000/svg">
<path fill-rule="evenodd" clip-rule="evenodd" d="M6.27148e-06 9.7423C0.000632072 7.68221 0.671158 5.67531 1.9153 4.00979C3.15943 2.34427 4.91317 1.10582 6.92468 0.472275C8.93619 -0.161269 11.102 -0.157307 13.111 0.48359C15.1201 1.12449 16.869 2.36935 18.1067 4.03941C19.3445 5.70947 20.0072 7.71881 19.9999 9.77888C19.9926 11.839 19.3156 13.8438 18.0661 15.5055C16.8165 17.1671 15.0588 18.4002 13.0452 19.0275C11.0317 19.6549 8.86591 19.6442 6.85895 18.9972L3.85053 19.9737C3.77145 19.9994 3.68725 20.0064 3.60485 19.9941C3.52245 19.9819 3.44421 19.9507 3.37658 19.9033C3.30895 19.8558 3.25386 19.7933 3.21584 19.7211C3.17782 19.6488 3.15796 19.5687 3.1579 19.4875V16.8491C2.15983 15.9387 1.36449 14.838 0.821246 13.6154C0.278006 12.3929 -0.00152674 11.0746 6.27148e-06 9.7423ZM12.9232 11.8329L15.7126 7.81173C15.9884 7.41577 15.4653 6.98595 15.0653 7.26907L12.0568 9.33608C11.9561 9.40434 11.8364 9.44093 11.7137 9.44093C11.591 9.44093 11.4713 9.40434 11.3705 9.33608L9.14316 7.82096C8.47685 7.37268 7.52421 7.53681 7.07685 8.16461L4.28737 12.1858C4.01158 12.5817 4.53474 13.0126 4.93474 12.7284L7.94316 10.6614C8.04389 10.5932 8.16363 10.5566 8.28632 10.5566C8.409 10.5566 8.52875 10.5932 8.62948 10.6614L10.8568 12.1509C11.5232 12.6248 12.4758 12.4607 12.9232 11.8329Z" fill="#387EFF"/>
</svg>
