<svg width="26" height="27" viewBox="0 0 26 27" fill="none" xmlns="http://www.w3.org/2000/svg">
<g clip-path="url(#clip0_86_2419)">
<path d="M23.6761 0.753357V22.0932L4.65378 24.1691L2.32373 24.4233V3.0834C2.32373 2.43995 2.58424 1.85719 3.00593 1.4355C3.42761 1.01381 4.01033 0.753357 4.65378 0.753357H23.6761Z" fill="#277FC0"/>
<path d="M4.65378 0.753357V24.1691L2.32373 24.4233V3.0834C2.32373 2.43995 2.58424 1.85719 3.00593 1.4355C3.42761 1.01381 4.01033 0.753357 4.65378 0.753357Z" fill="#333333"/>
<path d="M23.6763 22.0934H4.65368C3.36688 22.0934 2.32373 23.1366 2.32373 24.4234C2.32373 25.7102 3.36688 26.7533 4.65368 26.7533H23.6763V25.4455L22.7283 24.4233L23.6763 23.4012V22.0934Z" fill="#333333"/>
<path d="M4.65372 25.4455C4.0901 25.4455 3.63159 24.987 3.63159 24.4234C3.63159 23.8597 4.0901 23.4012 4.65372 23.4012H23.6763V25.4455H4.65372Z" fill="#DFEAEF"/>
<path d="M10.7138 5.80513L9.01998 4.06668L7.32617 5.80513V0.753357H10.7138V5.80513Z" fill="#F2F2F2"/>
<path d="M18.0993 7.26562H9.06666C8.16102 7.26562 7.42688 7.99977 7.42688 8.9054V13.9089C7.42688 14.8146 8.16102 15.5487 9.06666 15.5487H18.0993C19.005 15.5487 19.7391 14.8146 19.7391 13.9089V8.9054C19.7391 7.99977 19.005 7.26562 18.0993 7.26562Z" fill="#DFEAEF"/>
<path d="M18.0994 15.9411H9.06671C7.94617 15.9411 7.03455 15.0295 7.03455 13.9089V8.9054C7.03455 7.78492 7.94617 6.87329 9.06671 6.87329H18.0994C19.2199 6.87329 20.1315 7.78492 20.1315 8.9054V13.9089C20.1315 15.0295 19.2199 15.9411 18.0994 15.9411ZM9.06671 7.65801C8.37888 7.65801 7.81927 8.21762 7.81927 8.9054V13.9089C7.81927 14.5968 8.37888 15.1564 9.06671 15.1564H18.0994C18.7872 15.1564 19.3468 14.5968 19.3468 13.9089V8.9054C19.3468 8.21757 18.7872 7.65801 18.0994 7.65801H9.06671Z" fill="#333333"/>
<path d="M17.2682 10.7601H9.89771C9.79365 10.7601 9.69386 10.7188 9.62028 10.6452C9.54671 10.5716 9.50537 10.4719 9.50537 10.3678C9.50537 10.2637 9.54671 10.164 9.62028 10.0904C9.69386 10.0168 9.79365 9.97546 9.89771 9.97546H17.2681C17.3722 9.97546 17.472 10.0168 17.5456 10.0904C17.6191 10.164 17.6605 10.2637 17.6605 10.3678C17.6605 10.4193 17.6504 10.4703 17.6307 10.5179C17.6109 10.5655 17.582 10.6088 17.5456 10.6452C17.5092 10.6817 17.4659 10.7106 17.4183 10.7303C17.3707 10.75 17.3197 10.7601 17.2682 10.7601ZM17.2682 12.8389H9.89771C9.79365 12.8389 9.69386 12.7976 9.62028 12.724C9.54671 12.6504 9.50537 12.5506 9.50537 12.4466C9.50537 12.3425 9.54671 12.2427 9.62028 12.1692C9.69386 12.0956 9.79365 12.0542 9.89771 12.0542H17.2681C17.3722 12.0542 17.472 12.0956 17.5456 12.1691C17.6192 12.2427 17.6605 12.3425 17.6605 12.4466C17.6605 12.5506 17.6192 12.6504 17.5456 12.724C17.472 12.7976 17.3723 12.8389 17.2682 12.8389Z" fill="#665E66"/>
</g>
<defs>
<clipPath id="clip0_86_2419">
<rect width="26" height="26" fill="white" transform="translate(0 0.753357)"/>
</clipPath>
</defs>
</svg>
