<svg width="20" height="20" viewBox="0 0 20 20" fill="none" xmlns="http://www.w3.org/2000/svg">
<path d="M14.1665 2.91669H5.83317C3.33317 2.91669 1.6665 4.16669 1.6665 7.08335V12.9167C1.6665 15.8334 3.33317 17.0834 5.83317 17.0834H14.1665C16.6665 17.0834 18.3332 15.8334 18.3332 12.9167V7.08335C18.3332 4.16669 16.6665 2.91669 14.1665 2.91669ZM14.5582 7.99169L11.9498 10.075C11.3998 10.5167 10.6998 10.7334 9.99984 10.7334C9.29984 10.7334 8.5915 10.5167 8.04984 10.075L5.4415 7.99169C5.17484 7.77502 5.13317 7.37502 5.3415 7.10835C5.55817 6.84169 5.94984 6.79169 6.2165 7.00835L8.82484 9.09169C9.45817 9.60002 10.5332 9.60002 11.1665 9.09169L13.7748 7.00835C14.0415 6.79169 14.4415 6.83335 14.6498 7.10835C14.8665 7.37502 14.8248 7.77502 14.5582 7.99169Z" fill="#8C94A3"/>
</svg>
