<svg width="20" height="20" viewBox="0 0 20 20" fill="none" xmlns="http://www.w3.org/2000/svg">
<path d="M17.9163 9.08334V3.41667C17.9163 2.16667 17.383 1.66667 16.058 1.66667H12.6913C11.3663 1.66667 10.833 2.16667 10.833 3.41667V9.08334C10.833 10.3333 11.3663 10.8333 12.6913 10.8333H16.058C17.383 10.8333 17.9163 10.3333 17.9163 9.08334Z" fill="#D1D4DA"/>
<path d="M9.16634 10.9167V16.5833C9.16634 17.8333 8.63301 18.3333 7.30801 18.3333H3.94134C2.61634 18.3333 2.08301 17.8333 2.08301 16.5833V10.9167C2.08301 9.66667 2.61634 9.16667 3.94134 9.16667H7.30801C8.63301 9.16667 9.16634 9.66667 9.16634 10.9167Z" fill="#D1D4DA"/>
<path d="M17.9163 16.5833V14.25C17.9163 13 17.383 12.5 16.058 12.5H12.6913C11.3663 12.5 10.833 13 10.833 14.25V16.5833C10.833 17.8333 11.3663 18.3333 12.6913 18.3333H16.058C17.383 18.3333 17.9163 17.8333 17.9163 16.5833Z" fill="#D1D4DA"/>
<path d="M9.16634 5.75001V3.41667C9.16634 2.16667 8.63301 1.66667 7.30801 1.66667H3.94134C2.61634 1.66667 2.08301 2.16667 2.08301 3.41667V5.75001C2.08301 7.00001 2.61634 7.5 3.94134 7.5H7.30801C8.63301 7.5 9.16634 7.00001 9.16634 5.75001Z" fill="#D1D4DA"/>
</svg>
