<svg width="32" height="39" viewBox="0 0 32 39" fill="none" xmlns="http://www.w3.org/2000/svg">
<g clip-path="url(#clip0_4645_9043)">
<path d="M28 19.5C28 11.768 21.732 5.5 14 5.5C6.26801 5.5 0 11.768 0 19.5C0 27.232 6.26801 33.5 14 33.5C21.732 33.5 28 27.232 28 19.5Z" fill="#EB5757"/>
<path d="M10.2581 16.7502L5.97823 17.8636C5.4494 18.0009 4.9255 17.6257 4.88558 17.081L4.56183 12.6699C4.53448 12.3002 4.9512 12.0662 5.25308 12.2822L6.52237 13.1911C9.80417 9.32688 15.5567 8.56345 19.7513 11.5685C21.4072 12.7541 22.5852 14.3587 23.2447 16.1349C23.4257 16.6227 23.1479 17.1609 22.6437 17.2905L21.1524 17.6744C20.7225 17.7849 20.2817 17.5546 20.1177 17.1417C19.6692 16.0124 18.9025 14.9947 17.8416 14.2351C15.1203 12.2855 11.4164 12.7137 9.20261 15.1112L10.4035 15.9714C10.7054 16.1874 10.6179 16.6572 10.2592 16.7507L10.2581 16.7502ZM22.023 21.1372L17.7432 22.2506C17.3839 22.3441 17.2969 22.8139 17.5988 23.0299L18.7997 23.8902C16.5854 26.2877 12.882 26.7159 10.1607 24.7663C9.09979 24.0067 8.33253 22.9889 7.88464 21.8596C7.72058 21.4467 7.28034 21.2159 6.84995 21.327L5.35862 21.7109C4.8544 21.8405 4.57659 22.3786 4.75761 22.8664C5.41714 24.6421 6.59511 26.2466 8.25104 27.4328C12.4456 30.4379 18.1982 29.675 21.48 25.8102L22.7492 26.7192C23.0506 26.9352 23.4673 26.7017 23.4405 26.3314L23.1167 21.9203C23.0768 21.3756 22.5529 20.9999 22.0241 21.1377L22.023 21.1372Z" fill="white"/>
</g>
<defs>
<clipPath id="clip0_4645_9043">
<rect width="28" height="28" fill="white" transform="translate(0 5.5)"/>
</clipPath>
</defs>
</svg>
