<svg width="26" height="20" viewBox="0 0 26 20" fill="none" xmlns="http://www.w3.org/2000/svg">
<g clip-path="url(#clip0_4645_8678)">
<path d="M2.054 17.8341H25.0313C25.5166 17.8341 25.9084 18.1228 25.9084 18.4794C25.9094 18.6494 25.8176 18.8128 25.6532 18.9336C25.4887 19.0544 25.2651 19.1228 25.0313 19.1238H1.17691C0.943151 19.1228 0.719488 19.0544 0.555037 18.9336C0.390586 18.8128 0.298791 18.6494 0.299813 18.4794V1.1438C0.299813 0.788068 0.691625 0.49939 1.17691 0.49939C1.66091 0.49939 2.05272 0.788068 2.05272 1.1438V17.8341H2.054ZM3.93111 16.7027L7.45614 11.5157L10.9824 12.812L15.3897 8.92043L18.916 10.8667L24.2054 5.02978V16.7027H3.93239H3.93111Z" fill="#564FFD"/>
</g>
<defs>
<clipPath id="clip0_4645_8678">
<rect width="25.6086" height="18.6244" fill="white" transform="translate(0.299805 0.500122)"/>
</clipPath>
</defs>
</svg>
