<svg width="18" height="19" viewBox="0 0 18 19" fill="none" xmlns="http://www.w3.org/2000/svg">
<path d="M11.0033 18.8587L10.0787 17.849C10.5829 17.3532 10.8135 16.7304 10.7225 16.11C10.6315 15.4897 10.226 14.9196 9.59024 14.5182C8.52157 13.8469 7.78928 12.9218 7.51419 11.8956C4.79264 14.8198 6.20575 16.4328 7.51419 17.8621L6.55467 18.8587C4.73263 18.6007 3.09642 17.8557 1.94837 16.7613C0.800315 15.667 0.218019 14.2973 0.309073 12.9053C0.309073 12.9053 -0.0572888 10.0728 4.28672 7.30592C4.28672 7.30592 9.20643 3.88335 7.49674 1.35249L8.73539 0.500122C10.6251 1.49611 12.0708 2.89771 12.8832 4.52149C13.6956 6.14527 13.837 7.91558 13.2887 9.60074C13.7024 9.29733 14.0342 8.93665 14.2657 8.53857L15.7835 8.44677C15.9056 8.60413 18.9935 12.289 17.3362 15.3968C16.7459 16.3236 15.8579 17.1254 14.7523 17.7298C13.6467 18.3342 12.3583 18.7222 11.0033 18.8587ZM7.51419 9.74499L9.03197 10.2564C8.95106 10.8546 9.05366 11.4588 9.33189 12.0226C9.61013 12.5864 10.0566 13.0947 10.637 13.5085C11.3848 13.918 11.9511 14.4873 12.2623 15.1422C12.5735 15.7971 12.615 16.5073 12.3816 17.1802C13.1026 16.9903 13.765 16.6926 14.3287 16.3049C14.8924 15.9173 15.3458 15.4478 15.6614 14.9247C16.2537 13.3284 15.9972 11.6215 14.9461 10.1646C14.6157 10.5674 14.1358 10.8888 13.5654 11.0892C12.995 11.2896 12.3592 11.3602 11.7361 11.2924L11.1255 10.4007C11.8896 9.15851 12.1499 7.77464 11.8738 6.42195C11.5976 5.06926 10.7973 3.80772 9.57279 2.79495C9.32855 5.57496 5.54281 8.14517 5.42069 8.28941C1.80941 10.5974 2.05365 12.7348 2.05365 12.8266C1.98553 13.6365 2.20679 14.4454 2.69452 15.1694C3.18225 15.8934 3.9187 16.5061 4.82753 16.9442C3.79823 15.1083 3.79823 12.9053 7.56652 9.74499H7.51419Z" fill="#FF6636"/>
</svg>
