<svg width="34" height="34" viewBox="0 0 34 34" fill="none" xmlns="http://www.w3.org/2000/svg">
<path fill-rule="evenodd" clip-rule="evenodd" d="M18.8462 33.9933H15.1514C14.7948 33.9933 14.5039 33.7024 14.5039 33.3458V31.5369C14.5039 31.1803 14.7948 30.8901 15.1514 30.8901H18.8462C19.2028 30.8901 19.4937 31.1803 19.4937 31.5369V33.3458C19.4937 33.7024 19.2028 33.9933 18.8462 33.9933Z" fill="#A6A6A6"/>
<path fill-rule="evenodd" clip-rule="evenodd" d="M20.6696 27.8069H13.329C13.1092 27.8069 12.9306 27.6289 12.9306 27.4091C12.9306 23.4533 11.6456 22.4154 10.2843 21.3163C8.85324 20.1609 7.37305 18.9656 7.37305 14.7202C7.37305 9.41236 11.6914 5.09396 16.9993 5.09396C22.3071 5.09396 26.6255 9.41236 26.6255 14.7202C26.6255 18.9656 25.1454 20.1602 23.7143 21.3163C22.3536 22.4154 21.068 23.4533 21.068 27.4091C21.068 27.6289 20.8894 27.8069 20.6696 27.8069Z" fill="#FFC738"/>
<path fill-rule="evenodd" clip-rule="evenodd" d="M24.569 15.1186C24.3485 15.1186 24.1705 14.94 24.1705 14.7202C24.1705 12.4431 23.1246 10.3513 21.3018 8.98268C21.1258 8.85053 21.0906 8.60084 21.2228 8.42486C21.3549 8.24889 21.6039 8.21369 21.7799 8.34584C23.8053 9.86654 24.9668 12.1901 24.9668 14.7202C24.9668 14.94 24.7888 15.1186 24.569 15.1186ZM19.8342 8.09814C19.7844 8.09814 19.7339 8.08885 19.6848 8.06893C18.8315 7.72428 17.9284 7.54963 17 7.54963C16.7802 7.54963 16.6016 7.37166 16.6016 7.15119C16.6016 6.93139 16.7802 6.75342 17 6.75342C18.0313 6.75342 19.0347 6.94732 19.983 7.33049C20.1875 7.41283 20.2858 7.64459 20.2034 7.84912C20.141 8.00385 19.9916 8.09814 19.8342 8.09814Z" fill="#FFA12D"/>
<path fill-rule="evenodd" clip-rule="evenodd" d="M21.5073 31.6864H12.4893C12.0391 31.6864 11.6719 31.3198 11.6719 30.8696V27.8275C11.6719 27.3773 12.0384 27.0107 12.4893 27.0107H21.5073C21.9582 27.0107 22.3248 27.3773 22.3248 27.8275V30.8696C22.3248 31.3198 21.9582 31.6864 21.5073 31.6864Z" fill="#CCCCCC"/>
<path fill-rule="evenodd" clip-rule="evenodd" d="M11.6719 29.7467V28.9504H15.0586C15.2784 28.9504 15.457 29.1284 15.457 29.3482C15.457 29.5687 15.2784 29.7467 15.0586 29.7467H11.6719ZM22.3248 28.9504V29.7467H18.938C18.7182 29.7467 18.5403 29.5687 18.5403 29.3482C18.5403 29.1284 18.7182 28.9504 18.938 28.9504H22.3248Z" fill="#E7E7E7"/>
<path fill-rule="evenodd" clip-rule="evenodd" d="M17 3.52944C16.7802 3.52944 16.6016 3.35147 16.6016 3.13167V0.405029C16.6016 0.185225 16.7802 0.0065918 17 0.0065918C17.2198 0.0065918 17.3984 0.185225 17.3984 0.405029V3.13167C17.3984 3.35147 17.2198 3.52944 17 3.52944Z" fill="#FFA12D"/>
<path fill-rule="evenodd" clip-rule="evenodd" d="M23.6579 5.31439C23.5902 5.31439 23.5218 5.29712 23.4593 5.2606C23.2688 5.15037 23.203 4.90732 23.3132 4.71673L24.6766 2.35533C24.7861 2.16474 25.0298 2.09966 25.2204 2.2099C25.411 2.31947 25.4761 2.56318 25.3665 2.75376L24.0032 5.11517C23.9295 5.24267 23.7954 5.31439 23.6579 5.31439Z" fill="#FFA12D"/>
<path fill-rule="evenodd" clip-rule="evenodd" d="M28.5333 10.1894C28.3958 10.1894 28.2617 10.1176 28.1879 9.99013C28.0784 9.79955 28.1435 9.55583 28.334 9.44626L30.6948 8.08294C30.8854 7.97271 31.1291 8.03779 31.2393 8.22837C31.3489 8.41896 31.2838 8.66267 31.0932 8.7729L28.7325 10.1356C28.6694 10.1721 28.601 10.1894 28.5333 10.1894Z" fill="#FFA12D"/>
<path fill-rule="evenodd" clip-rule="evenodd" d="M5.46432 10.1893C5.39658 10.1893 5.32818 10.1721 5.2651 10.1355L2.90436 8.77287C2.71377 8.66264 2.64869 8.41893 2.75826 8.22834C2.8685 8.03776 3.11221 7.97268 3.30279 8.08291L5.66354 9.44623C5.85412 9.5558 5.9192 9.79952 5.80963 9.9901C5.73592 10.1176 5.60178 10.1893 5.46432 10.1893Z" fill="#FFA12D"/>
<path fill-rule="evenodd" clip-rule="evenodd" d="M10.3399 5.31445C10.2025 5.31445 10.0683 5.24273 9.99463 5.11523L8.63131 2.75383C8.52174 2.56324 8.58682 2.31953 8.7774 2.20996C8.96799 2.09972 9.2117 2.1648 9.32127 2.35539L10.6846 4.71679C10.7948 4.90738 10.7291 5.15109 10.5385 5.26066C10.4761 5.29718 10.4077 5.31445 10.3399 5.31445Z" fill="#FFA12D"/>
<path fill-rule="evenodd" clip-rule="evenodd" d="M16.9987 17.3897C16.1932 17.3897 15.5371 16.7342 15.5371 15.9281V10.2756C15.5371 9.4694 16.1932 8.81396 16.9987 8.81396C17.8049 8.81396 18.4603 9.4694 18.4603 10.2756V15.9281C18.4603 16.7342 17.8049 17.3897 16.9987 17.3897Z" fill="#FFA12D"/>
<path fill-rule="evenodd" clip-rule="evenodd" d="M16.9988 21.2273C16.1362 21.2273 15.4336 20.5247 15.4336 19.6621C15.4336 18.7988 16.1362 18.0969 16.9988 18.0969C17.8621 18.0969 18.564 18.7988 18.564 19.6621C18.564 20.5247 17.8621 21.2273 16.9988 21.2273Z" fill="#FFA12D"/>
</svg>
