<svg width="32" height="39" viewBox="0 0 32 39" fill="none" xmlns="http://www.w3.org/2000/svg">
<path d="M14.9454 6.61371L18.0863 14.1163C18.2044 14.3987 18.3927 14.6426 18.6316 14.8228C18.8705 15.0029 19.1512 15.1125 19.4443 15.1403L27.0957 15.8588C27.9614 15.9908 28.3068 17.1027 27.6791 17.743L21.9155 22.814C21.4488 23.2245 21.2364 23.8697 21.3648 24.4929L23.0402 32.7067C23.1872 33.6085 22.2841 34.2976 21.5094 33.8699L14.8311 29.7741C14.5792 29.6192 14.2924 29.5376 14.0004 29.5376C13.7083 29.5376 13.4215 29.6192 13.1697 29.7741L6.4913 33.8675C5.71893 34.2927 4.81355 33.606 4.96055 32.7042L6.63598 24.4905C6.76198 23.8673 6.55197 23.2221 6.08528 22.8115L0.319307 17.7454C-0.30606 17.1076 0.0392918 15.9932 0.902671 15.8612L8.55408 15.1427C8.84723 15.115 9.1279 15.0053 9.36679 14.8252C9.60567 14.6451 9.79401 14.4011 9.91215 14.1188L13.053 6.61616C13.4427 5.79502 14.5581 5.79502 14.9454 6.61371Z" fill="#27AE60"/>
<path d="M14.1386 14.6936L13.5834 9.03859C13.5615 8.72359 13.4982 8.18359 13.99 8.18359C14.3796 8.18359 14.5914 9.01609 14.5914 9.01609L16.2568 13.5561C16.885 15.2836 16.6269 15.8761 16.0206 16.2261C15.3243 16.6261 14.2968 16.3136 14.1386 14.6936Z" fill="#6FCF97"/>
<path d="M21.0072 22.6272L25.7843 18.7997C26.0204 18.5972 26.4465 18.2747 26.1057 17.9072C25.8354 17.6172 25.105 18.0347 25.105 18.0347L20.9244 19.7122C19.6778 20.1547 18.85 20.8097 18.777 21.6347C18.682 22.7347 19.6437 23.5822 21.0072 22.6272Z" fill="#6FCF97"/>
</svg>
