<svg width="23" height="23" viewBox="0 0 23 23" fill="none" xmlns="http://www.w3.org/2000/svg">
<path d="M9.80375 14.1162L6.98625 11.2987C6.81375 11.1262 6.60292 11.04 6.35375 11.04C6.10458 11.04 5.89375 11.1262 5.72125 11.2987C5.52958 11.4904 5.43375 11.7156 5.43375 11.9744C5.43375 12.2331 5.52 12.4488 5.6925 12.6213L9.2 16.1287C9.35333 16.2821 9.55458 16.3587 9.80375 16.3587C10.0529 16.3587 10.2542 16.2821 10.4075 16.1287L17.3075 9.22875C17.48 9.05625 17.5662 8.84542 17.5662 8.59625C17.5662 8.34708 17.4704 8.12667 17.2787 7.935C17.1062 7.7625 16.8906 7.67625 16.6319 7.67625C16.3731 7.67625 16.1479 7.77208 15.9562 7.96375L9.80375 14.1162ZM11.5 23C9.87083 23 8.35667 22.7077 6.9575 22.1231C5.55833 21.5385 4.34125 20.7288 3.30625 19.6938C2.27125 18.6588 1.46146 17.4417 0.876875 16.0425C0.292292 14.6433 0 13.1292 0 11.5C0 9.89 0.292292 8.38542 0.876875 6.98625C1.46146 5.58708 2.27125 4.37 3.30625 3.335C4.34125 2.3 5.55833 1.48542 6.9575 0.89125C8.35667 0.297083 9.87083 0 11.5 0C13.11 0 14.6146 0.297083 16.0138 0.89125C17.4129 1.48542 18.63 2.3 19.665 3.335C20.7 4.37 21.5146 5.58708 22.1087 6.98625C22.7029 8.38542 23 9.89 23 11.5C23 13.1292 22.7029 14.6433 22.1087 16.0425C21.5146 17.4417 20.7 18.6588 19.665 19.6938C18.63 20.7288 17.4129 21.5385 16.0138 22.1231C14.6146 22.7077 13.11 23 11.5 23Z" fill="#52C41A"/>
</svg>
