<svg width="30" height="30" viewBox="0 0 30 30" fill="none" xmlns="http://www.w3.org/2000/svg">
<path fill-rule="evenodd" clip-rule="evenodd" d="M23.75 11.5625C23.9986 11.5625 24.2371 11.6613 24.4129 11.8371C24.5887 12.0129 24.6875 12.2514 24.6875 12.5V14.0625H26.25C26.4986 14.0625 26.7371 14.1613 26.9129 14.3371C27.0887 14.5129 27.1875 14.7514 27.1875 15C27.1875 15.2486 27.0887 15.4871 26.9129 15.6629C26.7371 15.8387 26.4986 15.9375 26.25 15.9375H24.6875V17.5C24.6875 17.7486 24.5887 17.9871 24.4129 18.1629C24.2371 18.3387 23.9986 18.4375 23.75 18.4375C23.5014 18.4375 23.2629 18.3387 23.0871 18.1629C22.9113 17.9871 22.8125 17.7486 22.8125 17.5V15.9375H21.25C21.0014 15.9375 20.7629 15.8387 20.5871 15.6629C20.4113 15.4871 20.3125 15.2486 20.3125 15C20.3125 14.7514 20.4113 14.5129 20.5871 14.3371C20.7629 14.1613 21.0014 14.0625 21.25 14.0625H22.8125V12.5C22.8125 12.2514 22.9113 12.0129 23.0871 11.8371C23.2629 11.6613 23.5014 11.5625 23.75 11.5625ZM12.5 4.6875C10.1663 4.6875 8.33375 6.50375 8.33375 8.6725C8.33375 10.8413 10.1663 12.655 12.5 12.655C14.8337 12.655 16.6663 10.8387 16.6663 8.67C16.6663 6.50125 14.8337 4.6875 12.5 4.6875ZM6.45875 8.6725C6.45875 5.40375 9.19625 2.8125 12.5 2.8125C15.8038 2.8125 18.5413 5.40375 18.5413 8.6725C18.5413 11.9412 15.8038 14.5312 12.5 14.5312C9.19625 14.5312 6.45875 11.94 6.45875 8.67125V8.6725ZM15.8337 18.71C13.6266 18.3459 11.3747 18.3459 9.1675 18.71L8.9075 18.7537C6.49875 19.15 4.6875 21.31 4.6875 23.89C4.6875 24.7037 5.31875 25.3125 6.035 25.3125H18.965C19.68 25.3125 20.3125 24.7038 20.3125 23.8888C20.3125 21.31 18.5012 19.1513 16.0925 18.7537L15.8337 18.71ZM16.1375 16.86L16.3975 16.9037C19.755 17.4575 22.1875 20.4362 22.1875 23.89C22.1875 25.6825 20.7738 27.1875 18.965 27.1875H6.035C4.22625 27.1875 2.8125 25.6825 2.8125 23.8888C2.8125 20.4363 5.245 17.4562 8.6025 16.9037L8.8625 16.86C11.2712 16.4627 13.7288 16.4627 16.1375 16.86Z" fill="#103358"/>
</svg>
