<svg width="114" height="129" viewBox="0 0 114 129" fill="none" xmlns="http://www.w3.org/2000/svg">
<path d="M65.4442 81.1388C59.8182 86.7649 56.7196 94.2456 56.7196 102.203C56.7196 103.802 56.8443 105.382 57.0911 106.932C45.4113 107.249 33.6069 106.171 26.1162 103.979C21.1868 102.536 17.6309 97.9125 17.6309 92.5106C17.6309 87.7096 20.4602 83.5804 24.5358 81.666C24.684 81.5874 24.8262 81.5052 24.982 81.4329C31.5129 78.4079 41.1238 76.0112 43.5616 74.3996C44.4579 73.805 44.4466 69.2271 44.4466 69.2271C44.4466 69.2271 36.8973 62.8582 36.8973 50.7434C36.8973 44.7608 40.7037 33.8263 53.1177 33.6381C53.1177 33.6344 53.1177 33.6319 53.1189 33.6294C53.1725 33.6294 53.2248 33.6331 53.2784 33.6331C53.3333 33.6331 53.3844 33.6294 53.4392 33.6294C53.4392 33.6319 53.4405 33.6344 53.4417 33.6381C65.8556 33.8263 69.6608 44.7608 69.6608 50.7434C69.6608 62.8582 62.1115 69.2271 62.1115 69.2271C62.1115 69.2271 62.1003 73.805 62.9977 74.3996C64.158 75.1686 66.9512 76.1146 70.2616 77.2226C68.5439 78.3445 66.9299 79.6532 65.4442 81.1388Z" fill="#282E5B"/>
<path d="M86.6617 0H20.4081C9.15589 0 0 9.15454 0 20.4081V102.984C0 114.236 9.15589 123.391 20.4081 123.391H65.5667C65.5244 123.35 65.4833 123.309 65.4421 123.268C64.3092 122.135 63.2771 120.926 62.3536 119.652H20.4081C11.2174 119.652 3.73923 112.175 3.73923 102.984V21.9383H103.329V77.6104C104.644 78.5141 105.895 79.5286 107.069 80.6516V20.408C107.069 9.15454 97.914 0 86.6617 0ZM16.0907 15.1553C13.9509 15.1553 12.2163 13.4207 12.2163 11.2809C12.2163 9.14116 13.9509 7.40659 16.0907 7.40659C18.2304 7.40659 19.965 9.14121 19.965 11.2809C19.965 13.4207 18.2304 15.1553 16.0907 15.1553ZM27.8282 15.1553C25.6883 15.1553 23.9539 13.4207 23.9539 11.2809C23.9539 9.14116 25.6883 7.40659 27.8282 7.40659C29.9678 7.40659 31.7025 9.14121 31.7025 11.2809C31.7025 13.4207 29.9678 15.1553 27.8282 15.1553ZM39.5656 15.1553C37.4259 15.1553 35.6913 13.4207 35.6913 11.2809C35.6913 9.14116 37.4259 7.40659 39.5656 7.40659C41.7053 7.40659 43.44 9.14121 43.44 11.2809C43.44 13.4207 41.7053 15.1553 39.5656 15.1553Z" fill="#282E5B"/>
<path d="M105.454 83.2552C94.9887 72.7894 78.0227 72.7894 67.5578 83.2543C57.0931 93.7191 57.0923 110.686 67.5579 121.152C78.0228 131.617 94.9896 131.616 105.454 121.151C115.919 110.686 115.919 93.72 105.454 83.2552ZM73.9993 89.6958C79.7327 83.9622 88.4236 82.9888 95.1625 86.7745L71.0773 110.86C67.2915 104.121 68.2651 95.4298 73.9993 89.6958ZM99.013 114.709C93.2788 120.444 84.5875 121.417 77.849 117.632L101.934 93.5462C105.72 100.285 104.747 108.976 99.013 114.709Z" fill="#FF503B"/>
</svg>
