<svg width="20" height="18" viewBox="0 0 20 18" fill="none" xmlns="http://www.w3.org/2000/svg">
<path d="M9.99953 7.69352C8.39371 7.69352 7.05457 8.85738 6.78125 10.3858H13.2178C12.9445 8.85738 11.6054 7.69352 9.99953 7.69352ZM9.99953 3.07812C9.0452 3.07812 8.26875 3.85453 8.26875 4.80891C8.26875 5.76328 9.04516 6.53969 9.99953 6.53969C10.9539 6.53969 11.7303 5.76328 11.7303 4.80891C11.7303 3.85453 10.9539 3.07812 9.99953 3.07812Z" fill="#103358"/>
<path d="M18.2692 0H1.73078C0.776406 0 0 0.776406 0 1.73074V12.5C0 13.4543 0.776406 14.2307 1.73078 14.2307H7.40387L9.53848 17.0769C9.59221 17.1486 9.66189 17.2067 9.742 17.2468C9.8221 17.2868 9.91044 17.3077 10 17.3077C10.0896 17.3077 10.1779 17.2868 10.258 17.2468C10.3381 17.2067 10.4078 17.1486 10.4615 17.0769L12.5961 14.2307H18.2692C19.2236 14.2307 20 13.4543 20 12.5V1.73074C20 0.776406 19.2236 0 18.2692 0ZM13.8462 11.5384H6.15383C5.8352 11.5384 5.57691 11.2801 5.57691 10.9615C5.57691 9.20457 6.60668 7.68371 8.0943 6.97047C7.49469 6.44152 7.11539 5.66824 7.11539 4.80766C7.11539 3.21707 8.40941 1.92305 10 1.92305C11.5906 1.92305 12.8846 3.21707 12.8846 4.80766C12.8846 5.66824 12.5053 6.44148 11.9057 6.97047C13.3933 7.68371 14.4231 9.20453 14.4231 10.9615C14.4231 11.2801 14.1648 11.5384 13.8462 11.5384Z" fill="#103358"/>
</svg>
