<svg width="20" height="20" viewBox="0 0 20 20" fill="none" xmlns="http://www.w3.org/2000/svg">
<path d="M18.1956 17.4927H14.2497C14.2372 17.2594 14.2081 16.901 14.1414 16.526C13.9289 15.3177 13.3914 14.2427 12.6289 13.3844C13.2247 13.0844 13.8914 12.9219 14.5831 12.9219C16.6956 12.9219 18.4997 14.4385 18.8706 16.526C18.9497 16.9802 18.6497 17.4094 18.1956 17.4927Z" fill="black"/>
<path d="M14.5846 12.0872C16.1955 12.0872 17.5013 10.7814 17.5013 9.17057C17.5013 7.55974 16.1955 6.25391 14.5846 6.25391C12.9738 6.25391 11.668 7.55974 11.668 9.17057C11.668 10.7814 12.9738 12.0872 14.5846 12.0872Z" fill="black"/>
<path d="M7.91797 10.8359C9.98904 10.8359 11.668 9.15701 11.668 7.08594C11.668 5.01487 9.98904 3.33594 7.91797 3.33594C5.8469 3.33594 4.16797 5.01487 4.16797 7.08594C4.16797 9.15701 5.8469 10.8359 7.91797 10.8359Z" fill="black"/>
<path d="M13.3211 16.6697C12.8498 14.0139 10.5773 12.0859 7.91692 12.0859C5.2565 12.0859 2.984 14.0139 2.51275 16.6697C2.49368 16.7775 2.49602 16.8879 2.51964 16.9948C2.54326 17.1016 2.5877 17.2028 2.65042 17.2925C2.71314 17.3822 2.79291 17.4586 2.88518 17.5175C2.97744 17.5764 3.0804 17.6165 3.18817 17.6355H12.6453C12.7531 17.6165 12.8561 17.5764 12.9484 17.5176C13.0407 17.4588 13.1205 17.3823 13.1833 17.2926C13.246 17.2029 13.2905 17.1018 13.3142 16.9949C13.3378 16.888 13.3402 16.7775 13.3211 16.6697Z" fill="black"/>
</svg>
