<svg width="20" height="20" viewBox="0 0 20 20" fill="none" xmlns="http://www.w3.org/2000/svg">
<path fill-rule="evenodd" clip-rule="evenodd" d="M12.6531 15.8783V16.6016H7.34238V15.8783H12.6531ZM9.06887 8.18207H8.3373C8.19262 8.18205 8.0512 8.13914 7.93091 8.05874C7.81062 7.97834 7.71688 7.86408 7.66153 7.7304C7.60619 7.59673 7.59173 7.44964 7.61998 7.30775C7.64823 7.16585 7.71793 7.03552 7.82026 6.93324C7.92258 6.83096 8.05294 6.76131 8.19485 6.73312C8.33676 6.70493 8.48384 6.71945 8.61749 6.77486C8.75114 6.83026 8.86536 6.92405 8.94571 7.04437C9.02605 7.16469 9.06891 7.30614 9.06887 7.45082V8.18207ZM10.2597 15.2116H9.73574V8.84867H10.2597V15.2116ZM12.2014 17.9058H7.79406C7.67437 17.9057 7.55958 17.8582 7.4749 17.7736C7.39022 17.689 7.34256 17.5743 7.34238 17.4546V17.2683H12.6531V17.4546C12.6529 17.5743 12.6053 17.689 12.5206 17.7736C12.4359 17.8582 12.3211 17.9057 12.2014 17.9058ZM9.99773 20C9.54714 19.9976 9.10757 19.8604 8.73566 19.606C8.36376 19.3515 8.07654 18.9916 7.91102 18.5725H12.0845C11.9189 18.9916 11.6317 19.3515 11.2598 19.6059C10.8879 19.8603 10.4483 19.9976 9.99773 20ZM13.6902 13.9229C14.8304 13.2697 15.7781 12.3275 16.438 11.1912C17.0978 10.0549 17.4464 8.76479 17.4486 7.45082C17.4486 3.34246 14.1061 0 9.99773 0C5.88934 0 2.54688 3.34246 2.54688 7.45082C2.54907 8.76479 2.89767 10.0549 3.55751 11.1912C4.21735 12.3275 5.16511 13.2697 6.30523 13.9229C6.54893 14.058 6.76183 14.2423 6.93035 14.4642C7.09887 14.6861 7.21932 14.9406 7.28402 15.2116H9.06887V8.84867H8.3373C8.06078 8.84861 7.79049 8.76655 7.5606 8.61287C7.33072 8.4592 7.15157 8.2408 7.0458 7.98531C6.94004 7.72981 6.91241 7.44869 6.96641 7.17749C7.02042 6.9063 7.15363 6.65721 7.3492 6.46172C7.54477 6.26623 7.79392 6.13312 8.06514 6.07923C8.33636 6.02534 8.61747 6.05308 8.87292 6.15896C9.12837 6.26483 9.34669 6.44407 9.50027 6.67402C9.65385 6.90397 9.7358 7.1743 9.73574 7.45082V8.18207H10.2597V7.45082C10.2597 7.1743 10.3416 6.90397 10.4952 6.67402C10.6488 6.44407 10.8671 6.26483 11.1226 6.15896C11.378 6.05308 11.6591 6.02534 11.9303 6.07923C12.2015 6.13312 12.4507 6.26623 12.6463 6.46172C12.8418 6.65721 12.975 6.9063 13.0291 7.17749C13.0831 7.44869 13.0554 7.72981 12.9497 7.98531C12.8439 8.2408 12.6647 8.4592 12.4349 8.61287C12.205 8.76655 11.9347 8.84861 11.6582 8.84867H10.9264V15.2116H12.7116C12.7763 14.9406 12.8967 14.6861 13.0652 14.4642C13.2338 14.2423 13.4467 14.058 13.6904 13.9229H13.6902ZM10.9264 8.18207V7.45082C10.9264 7.30616 10.9692 7.16473 11.0496 7.04443C11.1299 6.92413 11.2441 6.83034 11.3777 6.77494C11.5114 6.71954 11.6584 6.70501 11.8003 6.73319C11.9422 6.76136 12.0726 6.83098 12.1749 6.93324C12.2772 7.03549 12.3469 7.16579 12.3752 7.30766C12.4035 7.44953 12.389 7.5966 12.3337 7.73028C12.2784 7.86395 12.1847 7.97822 12.0645 8.05863C11.9442 8.13905 11.8028 8.18201 11.6582 8.18207H10.9264Z" fill="#103358"/>
</svg>
