<svg width="14" height="17" viewBox="0 0 14 17" fill="none" xmlns="http://www.w3.org/2000/svg">
<path d="M6.86407 8.04797C7.96969 8.04797 8.92709 7.6514 9.70936 6.869C10.4916 6.08676 10.8882 5.12962 10.8882 4.02387C10.8882 2.91845 10.4916 1.96121 9.70923 1.17868C8.92683 0.396536 7.96956 0 6.86407 0C5.75829 0 4.80112 0.396536 4.01888 1.17881C3.23664 1.96108 2.83994 2.91835 2.83994 4.02387C2.83994 5.12962 3.23661 6.08689 4.01901 6.86916C4.80141 7.6513 5.75869 8.04797 6.86407 8.04797ZM13.9052 12.8471C13.8826 12.5215 13.837 12.1664 13.7698 11.7914C13.702 11.4136 13.6147 11.0564 13.5101 10.73C13.4022 10.3926 13.2553 10.0594 13.0739 9.74007C12.8854 9.40866 12.6642 9.12007 12.4158 8.88261C12.1562 8.63419 11.8383 8.43445 11.4707 8.28872C11.1044 8.14384 10.6984 8.07042 10.2641 8.07042C10.0935 8.07042 9.92861 8.14038 9.61007 8.34778C9.38364 8.49523 9.15653 8.64164 8.92876 8.787C8.7099 8.92647 8.41341 9.05713 8.04719 9.17541C7.68991 9.29103 7.32715 9.34967 6.96908 9.34967C6.61105 9.34967 6.24838 9.29103 5.89071 9.17541C5.52492 9.05722 5.22843 8.9266 5.0098 8.78713C4.75625 8.62512 4.52685 8.47727 4.32787 8.34762C4.00971 8.14025 3.84463 8.07026 3.6741 8.07026C3.23968 8.07026 2.83384 8.14381 2.46762 8.28889C2.10025 8.43432 1.78223 8.63406 1.52232 8.88274C1.27416 9.12033 1.05276 9.40876 0.864603 9.74007C0.683238 10.0594 0.536397 10.3924 0.42829 10.7301C0.323869 11.0565 0.23658 11.4136 0.168772 11.7914C0.101584 12.1659 0.0559658 12.5211 0.0333849 12.8475C0.0109222 13.1758 -0.000211717 13.5049 3.04822e-06 13.834C3.04822e-06 14.7062 0.277239 15.4122 0.823945 15.9329C1.3639 16.4467 2.07833 16.7074 2.94714 16.7074H10.9918C11.8606 16.7074 12.5748 16.4469 13.1149 15.9329C13.6617 15.4126 13.9389 14.7064 13.9389 13.8339C13.9388 13.4973 13.9275 13.1652 13.9052 12.8471Z" fill="#103358"/>
</svg>
