<svg width="25" height="24" viewBox="0 0 25 24" fill="none" xmlns="http://www.w3.org/2000/svg">
<path fill-rule="evenodd" clip-rule="evenodd" d="M6.40345 11.9961C3.70138 11.9961 1.50293 14.1831 1.50293 16.8711C1.50293 19.5591 3.70138 21.7461 6.40345 21.7461H12.4349C15.1369 21.7461 17.3354 19.5591 17.3354 16.8711C17.3354 14.1831 15.1369 11.9961 12.4349 11.9961H6.40345ZM18.8432 2.99609C18.6433 2.99609 18.4515 3.07511 18.3101 3.21576C18.1687 3.35642 18.0893 3.54718 18.0893 3.74609V5.99609H15.8275C15.6276 5.99609 15.4358 6.07511 15.2944 6.21576C15.153 6.35642 15.0736 6.54718 15.0736 6.74609C15.0736 6.94501 15.153 7.13577 15.2944 7.27642C15.4358 7.41708 15.6276 7.49609 15.8275 7.49609H18.0893V9.74609C18.0893 9.94501 18.1687 10.1358 18.3101 10.2764C18.4515 10.4171 18.6433 10.4961 18.8432 10.4961C19.0432 10.4961 19.235 10.4171 19.3764 10.2764C19.5177 10.1358 19.5972 9.94501 19.5972 9.74609V7.49609H21.8589C22.0589 7.49609 22.2507 7.41708 22.3921 7.27642C22.5334 7.13577 22.6129 6.94501 22.6129 6.74609C22.6129 6.54718 22.5334 6.35642 22.3921 6.21576C22.2507 6.07511 22.0589 5.99609 21.8589 5.99609H19.5972V3.74609C19.5972 3.54718 19.5177 3.35642 19.3764 3.21576C19.235 3.07511 19.0432 2.99609 18.8432 2.99609ZM9.41916 2.24609C6.92969 2.24609 4.8956 4.26959 4.8956 6.74609C4.8956 9.22259 6.92969 11.2461 9.41916 11.2461C11.9086 11.2461 13.9427 9.22259 13.9427 6.74609C13.9427 4.26959 11.9086 2.24609 9.41916 2.24609Z" fill="#103358"/>
</svg>
